<svg xmlns="http://www.w3.org/2000/svg" width="6000" height="6000" viewBox="0 0 6000 6000" preserveAspectRatio="xMidYMid slice">
<rect width="6000" height="6000" fill="#0b0b0b" />
<polygon points="2884.50,454.66 2848.50,517.02 2776.50,517.02 2740.50,454.66 2776.50,392.31 2848.50,392.31" fill="#333333" stroke="none" />
<polygon points="2434.50,584.57 2398.50,646.92 2326.50,646.92 2290.50,584.57 2326.50,522.21 2398.50,522.21" fill="#E21E26" stroke="none" />
<polygon points="2547.00,519.62 2511.00,581.97 2439.00,581.97 2403.00,519.62 2439.00,457.26 2511.00,457.26" fill="#111111" stroke="none" />
<polygon points="2884.50,584.57 2848.50,646.92 2776.50,646.92 2740.50,584.57 2776.50,522.21 2848.50,522.21" fill="#111111" stroke="none" />
<polygon points="3897.00,519.62 3861.00,581.97 3789.00,581.97 3753.00,519.62 3789.00,457.26 3861.00,457.26" fill="#111111" stroke="none" />
<polygon points="1872.00,649.52 1836.00,711.87 1764.00,711.87 1728.00,649.52 1764.00,587.17 1836.00,587.17" fill="#E21E26" stroke="none" />
<polygon points="2434.50,714.47 2398.50,776.82 2326.50,776.82 2290.50,714.47 2326.50,652.12 2398.50,652.12" fill="#E21E26" stroke="none" />
<polygon points="2884.50,714.47 2848.50,776.82 2776.50,776.82 2740.50,714.47 2776.50,652.12 2848.50,652.12" fill="#111111" stroke="none" />
<polygon points="3559.50,714.47 3523.50,776.82 3451.50,776.82 3415.50,714.47 3451.50,652.12 3523.50,652.12" fill="#111111" stroke="none" />
<polygon points="4572.00,649.52 4536.00,711.87 4464.00,711.87 4428.00,649.52 4464.00,587.17 4536.00,587.17" fill="#444444" stroke="none" />
<polygon points="1759.50,844.37 1723.50,906.73 1651.50,906.73 1615.50,844.37 1651.50,782.02 1723.50,782.02" fill="#1A1A1A" stroke="none" />
<polygon points="2884.50,844.37 2848.50,906.73 2776.50,906.73 2740.50,844.37 2776.50,782.02 2848.50,782.02" fill="#333333" stroke="none" />
<polygon points="3109.50,844.37 3073.50,906.73 3001.50,906.73 2965.50,844.37 3001.50,782.02 3073.50,782.02" fill="#E21E26" stroke="none" />
<polygon points="3559.50,844.37 3523.50,906.73 3451.50,906.73 3415.50,844.37 3451.50,782.02 3523.50,782.02" fill="#111111" stroke="none" />
<polygon points="3672.00,779.42 3636.00,841.78 3564.00,841.78 3528.00,779.42 3564.00,717.07 3636.00,717.07" fill="#111111" stroke="none" />
<polygon points="4122.00,779.42 4086.00,841.78 4014.00,841.78 3978.00,779.42 4014.00,717.07 4086.00,717.07" fill="#333333" stroke="none" />
<polygon points="1872.00,909.33 1836.00,971.68 1764.00,971.68 1728.00,909.33 1764.00,846.97 1836.00,846.97" fill="#111111" stroke="none" />
<polygon points="2434.50,974.28 2398.50,1036.63 2326.50,1036.63 2290.50,974.28 2326.50,911.92 2398.50,911.92" fill="#1A1A1A" stroke="none" />
<polygon points="2659.50,974.28 2623.50,1036.63 2551.50,1036.63 2515.50,974.28 2551.50,911.92 2623.50,911.92" fill="#2A2A2A" stroke="none" />
<polygon points="2772.00,909.33 2736.00,971.68 2664.00,971.68 2628.00,909.33 2664.00,846.97 2736.00,846.97" fill="#E21E26" stroke="none" />
<polygon points="3334.50,974.28 3298.50,1036.63 3226.50,1036.63 3190.50,974.28 3226.50,911.92 3298.50,911.92" fill="#333333" stroke="none" />
<polygon points="3559.50,974.28 3523.50,1036.63 3451.50,1036.63 3415.50,974.28 3451.50,911.92 3523.50,911.92" fill="#333333" stroke="none" />
<polygon points="4009.50,974.28 3973.50,1036.63 3901.50,1036.63 3865.50,974.28 3901.50,911.92 3973.50,911.92" fill="#111111" stroke="none" />
<polygon points="4234.50,974.28 4198.50,1036.63 4126.50,1036.63 4090.50,974.28 4126.50,911.92 4198.50,911.92" fill="#111111" stroke="none" />
<polygon points="4347.00,909.33 4311.00,971.68 4239.00,971.68 4203.00,909.33 4239.00,846.97 4311.00,846.97" fill="#E21E26" stroke="none" />
<polygon points="4459.50,974.28 4423.50,1036.63 4351.50,1036.63 4315.50,974.28 4351.50,911.92 4423.50,911.92" fill="#333333" stroke="none" />
<polygon points="4572.00,909.33 4536.00,971.68 4464.00,971.68 4428.00,909.33 4464.00,846.97 4536.00,846.97" fill="#1A1A1A" stroke="none" />
<polygon points="1984.50,1104.18 1948.50,1166.54 1876.50,1166.54 1840.50,1104.18 1876.50,1041.83 1948.50,1041.83" fill="#444444" stroke="none" />
<polygon points="2097.00,1039.23 2061.00,1101.58 1989.00,1101.58 1953.00,1039.23 1989.00,976.88 2061.00,976.88" fill="#333333" stroke="none" />
<polygon points="2547.00,1039.23 2511.00,1101.58 2439.00,1101.58 2403.00,1039.23 2439.00,976.88 2511.00,976.88" fill="#333333" stroke="none" />
<polygon points="2997.00,1039.23 2961.00,1101.58 2889.00,1101.58 2853.00,1039.23 2889.00,976.88 2961.00,976.88" fill="#444444" stroke="none" />
<polygon points="3334.50,1104.18 3298.50,1166.54 3226.50,1166.54 3190.50,1104.18 3226.50,1041.83 3298.50,1041.83" fill="#E21E26" stroke="none" />
<polygon points="3559.50,1104.18 3523.50,1166.54 3451.50,1166.54 3415.50,1104.18 3451.50,1041.83 3523.50,1041.83" fill="#E21E26" stroke="none" />
<polygon points="3784.50,1104.18 3748.50,1166.54 3676.50,1166.54 3640.50,1104.18 3676.50,1041.83 3748.50,1041.83" fill="#444444" stroke="none" />
<polygon points="3897.00,1039.23 3861.00,1101.58 3789.00,1101.58 3753.00,1039.23 3789.00,976.88 3861.00,976.88" fill="#E21E26" stroke="none" />
<polygon points="4009.50,1104.18 3973.50,1166.54 3901.50,1166.54 3865.50,1104.18 3901.50,1041.83 3973.50,1041.83" fill="#111111" stroke="none" />
<polygon points="4122.00,1039.23 4086.00,1101.58 4014.00,1101.58 3978.00,1039.23 4014.00,976.88 4086.00,976.88" fill="#333333" stroke="none" />
<polygon points="4459.50,1104.18 4423.50,1166.54 4351.50,1166.54 4315.50,1104.18 4351.50,1041.83 4423.50,1041.83" fill="#111111" stroke="none" />
<polygon points="1197.00,1169.13 1161.00,1231.49 1089.00,1231.49 1053.00,1169.13 1089.00,1106.78 1161.00,1106.78" fill="#E21E26" stroke="none" />
<polygon points="1647.00,1169.13 1611.00,1231.49 1539.00,1231.49 1503.00,1169.13 1539.00,1106.78 1611.00,1106.78" fill="#444444" stroke="none" />
<polygon points="1759.50,1234.09 1723.50,1296.44 1651.50,1296.44 1615.50,1234.09 1651.50,1171.73 1723.50,1171.73" fill="#111111" stroke="none" />
<polygon points="1872.00,1169.13 1836.00,1231.49 1764.00,1231.49 1728.00,1169.13 1764.00,1106.78 1836.00,1106.78" fill="#111111" stroke="none" />
<polygon points="2322.00,1169.13 2286.00,1231.49 2214.00,1231.49 2178.00,1169.13 2214.00,1106.78 2286.00,1106.78" fill="#333333" stroke="none" />
<polygon points="2772.00,1169.13 2736.00,1231.49 2664.00,1231.49 2628.00,1169.13 2664.00,1106.78 2736.00,1106.78" fill="#111111" stroke="none" />
<polygon points="3109.50,1234.09 3073.50,1296.44 3001.50,1296.44 2965.50,1234.09 3001.50,1171.73 3073.50,1171.73" fill="#444444" stroke="none" />
<polygon points="3672.00,1169.13 3636.00,1231.49 3564.00,1231.49 3528.00,1169.13 3564.00,1106.78 3636.00,1106.78" fill="#E21E26" stroke="none" />
<polygon points="3784.50,1234.09 3748.50,1296.44 3676.50,1296.44 3640.50,1234.09 3676.50,1171.73 3748.50,1171.73" fill="#111111" stroke="none" />
<polygon points="4009.50,1234.09 3973.50,1296.44 3901.50,1296.44 3865.50,1234.09 3901.50,1171.73 3973.50,1171.73" fill="#111111" stroke="none" />
<polygon points="4122.00,1169.13 4086.00,1231.49 4014.00,1231.49 3978.00,1169.13 4014.00,1106.78 4086.00,1106.78" fill="#111111" stroke="none" />
<polygon points="4234.50,1234.09 4198.50,1296.44 4126.50,1296.44 4090.50,1234.09 4126.50,1171.73 4198.50,1171.73" fill="#333333" stroke="none" />
<polygon points="2097.00,1299.04 2061.00,1361.39 1989.00,1361.39 1953.00,1299.04 1989.00,1236.68 2061.00,1236.68" fill="#111111" stroke="none" />
<polygon points="2209.50,1363.99 2173.50,1426.34 2101.50,1426.34 2065.50,1363.99 2101.50,1301.64 2173.50,1301.64" fill="#E21E26" stroke="none" />
<polygon points="2322.00,1299.04 2286.00,1361.39 2214.00,1361.39 2178.00,1299.04 2214.00,1236.68 2286.00,1236.68" fill="#2A2A2A" stroke="none" />
<polygon points="2434.50,1363.99 2398.50,1426.34 2326.50,1426.34 2290.50,1363.99 2326.50,1301.64 2398.50,1301.64" fill="#2A2A2A" stroke="none" />
<polygon points="2547.00,1299.04 2511.00,1361.39 2439.00,1361.39 2403.00,1299.04 2439.00,1236.68 2511.00,1236.68" fill="#2A2A2A" stroke="none" />
<polygon points="2772.00,1299.04 2736.00,1361.39 2664.00,1361.39 2628.00,1299.04 2664.00,1236.68 2736.00,1236.68" fill="#2A2A2A" stroke="none" />
<polygon points="3672.00,1299.04 3636.00,1361.39 3564.00,1361.39 3528.00,1299.04 3564.00,1236.68 3636.00,1236.68" fill="#444444" stroke="none" />
<polygon points="4122.00,1299.04 4086.00,1361.39 4014.00,1361.39 3978.00,1299.04 4014.00,1236.68 4086.00,1236.68" fill="#111111" stroke="none" />
<polygon points="4572.00,1299.04 4536.00,1361.39 4464.00,1361.39 4428.00,1299.04 4464.00,1236.68 4536.00,1236.68" fill="#E21E26" stroke="none" />
<polygon points="4684.50,1363.99 4648.50,1426.34 4576.50,1426.34 4540.50,1363.99 4576.50,1301.64 4648.50,1301.64" fill="#111111" stroke="none" />
<polygon points="1084.50,1493.89 1048.50,1556.25 976.50,1556.25 940.50,1493.89 976.50,1431.54 1048.50,1431.54" fill="#111111" stroke="none" />
<polygon points="1309.50,1493.89 1273.50,1556.25 1201.50,1556.25 1165.50,1493.89 1201.50,1431.54 1273.50,1431.54" fill="#1A1A1A" stroke="none" />
<polygon points="1422.00,1428.94 1386.00,1491.30 1314.00,1491.30 1278.00,1428.94 1314.00,1366.59 1386.00,1366.59" fill="#E21E26" stroke="none" />
<polygon points="1759.50,1493.89 1723.50,1556.25 1651.50,1556.25 1615.50,1493.89 1651.50,1431.54 1723.50,1431.54" fill="#2A2A2A" stroke="none" />
<polygon points="2097.00,1428.94 2061.00,1491.30 1989.00,1491.30 1953.00,1428.94 1989.00,1366.59 2061.00,1366.59" fill="#1A1A1A" stroke="none" />
<polygon points="2434.50,1493.89 2398.50,1556.25 2326.50,1556.25 2290.50,1493.89 2326.50,1431.54 2398.50,1431.54" fill="#111111" stroke="none" />
<polygon points="2547.00,1428.94 2511.00,1491.30 2439.00,1491.30 2403.00,1428.94 2439.00,1366.59 2511.00,1366.59" fill="#111111" stroke="none" />
<polygon points="2884.50,1493.89 2848.50,1556.25 2776.50,1556.25 2740.50,1493.89 2776.50,1431.54 2848.50,1431.54" fill="#2A2A2A" stroke="none" />
<polygon points="2997.00,1428.94 2961.00,1491.30 2889.00,1491.30 2853.00,1428.94 2889.00,1366.59 2961.00,1366.59" fill="#111111" stroke="none" />
<polygon points="3109.50,1493.89 3073.50,1556.25 3001.50,1556.25 2965.50,1493.89 3001.50,1431.54 3073.50,1431.54" fill="#444444" stroke="none" />
<polygon points="3334.50,1493.89 3298.50,1556.25 3226.50,1556.25 3190.50,1493.89 3226.50,1431.54 3298.50,1431.54" fill="#E21E26" stroke="none" />
<polygon points="3559.50,1493.89 3523.50,1556.25 3451.50,1556.25 3415.50,1493.89 3451.50,1431.54 3523.50,1431.54" fill="#333333" stroke="none" />
<polygon points="3897.00,1428.94 3861.00,1491.30 3789.00,1491.30 3753.00,1428.94 3789.00,1366.59 3861.00,1366.59" fill="#E21E26" stroke="none" />
<polygon points="4122.00,1428.94 4086.00,1491.30 4014.00,1491.30 3978.00,1428.94 4014.00,1366.59 4086.00,1366.59" fill="#2A2A2A" stroke="none" />
<polygon points="4459.50,1493.89 4423.50,1556.25 4351.50,1556.25 4315.50,1493.89 4351.50,1431.54 4423.50,1431.54" fill="#2A2A2A" stroke="none" />
<polygon points="4572.00,1428.94 4536.00,1491.30 4464.00,1491.30 4428.00,1428.94 4464.00,1366.59 4536.00,1366.59" fill="#444444" stroke="none" />
<polygon points="5022.00,1428.94 4986.00,1491.30 4914.00,1491.30 4878.00,1428.94 4914.00,1366.59 4986.00,1366.59" fill="#111111" stroke="none" />
<polygon points="1309.50,1623.80 1273.50,1686.15 1201.50,1686.15 1165.50,1623.80 1201.50,1561.44 1273.50,1561.44" fill="#444444" stroke="none" />
<polygon points="1647.00,1558.85 1611.00,1621.20 1539.00,1621.20 1503.00,1558.85 1539.00,1496.49 1611.00,1496.49" fill="#2A2A2A" stroke="none" />
<polygon points="2209.50,1623.80 2173.50,1686.15 2101.50,1686.15 2065.50,1623.80 2101.50,1561.44 2173.50,1561.44" fill="#444444" stroke="none" />
<polygon points="2322.00,1558.85 2286.00,1621.20 2214.00,1621.20 2178.00,1558.85 2214.00,1496.49 2286.00,1496.49" fill="#2A2A2A" stroke="none" />
<polygon points="2434.50,1623.80 2398.50,1686.15 2326.50,1686.15 2290.50,1623.80 2326.50,1561.44 2398.50,1561.44" fill="#1A1A1A" stroke="none" />
<polygon points="2659.50,1623.80 2623.50,1686.15 2551.50,1686.15 2515.50,1623.80 2551.50,1561.44 2623.50,1561.44" fill="#2A2A2A" stroke="none" />
<polygon points="2884.50,1623.80 2848.50,1686.15 2776.50,1686.15 2740.50,1623.80 2776.50,1561.44 2848.50,1561.44" fill="#E21E26" stroke="none" />
<polygon points="2997.00,1558.85 2961.00,1621.20 2889.00,1621.20 2853.00,1558.85 2889.00,1496.49 2961.00,1496.49" fill="#333333" stroke="none" />
<polygon points="3222.00,1558.85 3186.00,1621.20 3114.00,1621.20 3078.00,1558.85 3114.00,1496.49 3186.00,1496.49" fill="#444444" stroke="none" />
<polygon points="3559.50,1623.80 3523.50,1686.15 3451.50,1686.15 3415.50,1623.80 3451.50,1561.44 3523.50,1561.44" fill="#333333" stroke="none" />
<polygon points="3784.50,1623.80 3748.50,1686.15 3676.50,1686.15 3640.50,1623.80 3676.50,1561.44 3748.50,1561.44" fill="#111111" stroke="none" />
<polygon points="4122.00,1558.85 4086.00,1621.20 4014.00,1621.20 3978.00,1558.85 4014.00,1496.49 4086.00,1496.49" fill="#111111" stroke="none" />
<polygon points="4234.50,1623.80 4198.50,1686.15 4126.50,1686.15 4090.50,1623.80 4126.50,1561.44 4198.50,1561.44" fill="#1A1A1A" stroke="none" />
<polygon points="972.00,1688.75 936.00,1751.10 864.00,1751.10 828.00,1688.75 864.00,1626.40 936.00,1626.40" fill="#111111" stroke="none" />
<polygon points="1309.50,1753.70 1273.50,1816.06 1201.50,1816.06 1165.50,1753.70 1201.50,1691.35 1273.50,1691.35" fill="#E21E26" stroke="none" />
<polygon points="1422.00,1688.75 1386.00,1751.10 1314.00,1751.10 1278.00,1688.75 1314.00,1626.40 1386.00,1626.40" fill="#333333" stroke="none" />
<polygon points="1647.00,1688.75 1611.00,1751.10 1539.00,1751.10 1503.00,1688.75 1539.00,1626.40 1611.00,1626.40" fill="#E21E26" stroke="none" />
<polygon points="1872.00,1688.75 1836.00,1751.10 1764.00,1751.10 1728.00,1688.75 1764.00,1626.40 1836.00,1626.40" fill="#E21E26" stroke="none" />
<polygon points="1984.50,1753.70 1948.50,1816.06 1876.50,1816.06 1840.50,1753.70 1876.50,1691.35 1948.50,1691.35" fill="#444444" stroke="none" />
<polygon points="2547.00,1688.75 2511.00,1751.10 2439.00,1751.10 2403.00,1688.75 2439.00,1626.40 2511.00,1626.40" fill="#E21E26" stroke="none" />
<polygon points="2659.50,1753.70 2623.50,1816.06 2551.50,1816.06 2515.50,1753.70 2551.50,1691.35 2623.50,1691.35" fill="#111111" stroke="none" />
<polygon points="2772.00,1688.75 2736.00,1751.10 2664.00,1751.10 2628.00,1688.75 2664.00,1626.40 2736.00,1626.40" fill="#333333" stroke="none" />
<polygon points="2884.50,1753.70 2848.50,1816.06 2776.50,1816.06 2740.50,1753.70 2776.50,1691.35 2848.50,1691.35" fill="#111111" stroke="none" />
<polygon points="3222.00,1688.75 3186.00,1751.10 3114.00,1751.10 3078.00,1688.75 3114.00,1626.40 3186.00,1626.40" fill="#E21E26" stroke="none" />
<polygon points="3334.50,1753.70 3298.50,1816.06 3226.50,1816.06 3190.50,1753.70 3226.50,1691.35 3298.50,1691.35" fill="#111111" stroke="none" />
<polygon points="3784.50,1753.70 3748.50,1816.06 3676.50,1816.06 3640.50,1753.70 3676.50,1691.35 3748.50,1691.35" fill="#2A2A2A" stroke="none" />
<polygon points="4009.50,1753.70 3973.50,1816.06 3901.50,1816.06 3865.50,1753.70 3901.50,1691.35 3973.50,1691.35" fill="#111111" stroke="none" />
<polygon points="4459.50,1753.70 4423.50,1816.06 4351.50,1816.06 4315.50,1753.70 4351.50,1691.35 4423.50,1691.35" fill="#111111" stroke="none" />
<polygon points="4684.50,1753.70 4648.50,1816.06 4576.50,1816.06 4540.50,1753.70 4576.50,1691.35 4648.50,1691.35" fill="#444444" stroke="none" />
<polygon points="5022.00,1688.75 4986.00,1751.10 4914.00,1751.10 4878.00,1688.75 4914.00,1626.40 4986.00,1626.40" fill="#E21E26" stroke="none" />
<polygon points="5134.50,1753.70 5098.50,1816.06 5026.50,1816.06 4990.50,1753.70 5026.50,1691.35 5098.50,1691.35" fill="#E21E26" stroke="none" />
<polygon points="634.50,1883.61 598.50,1945.96 526.50,1945.96 490.50,1883.61 526.50,1821.25 598.50,1821.25" fill="#111111" stroke="none" />
<polygon points="1422.00,1818.65 1386.00,1881.01 1314.00,1881.01 1278.00,1818.65 1314.00,1756.30 1386.00,1756.30" fill="#333333" stroke="none" />
<polygon points="1534.50,1883.61 1498.50,1945.96 1426.50,1945.96 1390.50,1883.61 1426.50,1821.25 1498.50,1821.25" fill="#333333" stroke="none" />
<polygon points="1759.50,1883.61 1723.50,1945.96 1651.50,1945.96 1615.50,1883.61 1651.50,1821.25 1723.50,1821.25" fill="#2A2A2A" stroke="none" />
<polygon points="2209.50,1883.61 2173.50,1945.96 2101.50,1945.96 2065.50,1883.61 2101.50,1821.25 2173.50,1821.25" fill="#1A1A1A" stroke="none" />
<polygon points="2322.00,1818.65 2286.00,1881.01 2214.00,1881.01 2178.00,1818.65 2214.00,1756.30 2286.00,1756.30" fill="#111111" stroke="none" />
<polygon points="2434.50,1883.61 2398.50,1945.96 2326.50,1945.96 2290.50,1883.61 2326.50,1821.25 2398.50,1821.25" fill="#2A2A2A" stroke="none" />
<polygon points="2547.00,1818.65 2511.00,1881.01 2439.00,1881.01 2403.00,1818.65 2439.00,1756.30 2511.00,1756.30" fill="#2A2A2A" stroke="none" />
<polygon points="2884.50,1883.61 2848.50,1945.96 2776.50,1945.96 2740.50,1883.61 2776.50,1821.25 2848.50,1821.25" fill="#2A2A2A" stroke="none" />
<polygon points="2997.00,1818.65 2961.00,1881.01 2889.00,1881.01 2853.00,1818.65 2889.00,1756.30 2961.00,1756.30" fill="#111111" stroke="none" />
<polygon points="3784.50,1883.61 3748.50,1945.96 3676.50,1945.96 3640.50,1883.61 3676.50,1821.25 3748.50,1821.25" fill="#E21E26" stroke="none" />
<polygon points="4009.50,1883.61 3973.50,1945.96 3901.50,1945.96 3865.50,1883.61 3901.50,1821.25 3973.50,1821.25" fill="#2A2A2A" stroke="none" />
<polygon points="4684.50,1883.61 4648.50,1945.96 4576.50,1945.96 4540.50,1883.61 4576.50,1821.25 4648.50,1821.25" fill="#E21E26" stroke="none" />
<polygon points="4797.00,1818.65 4761.00,1881.01 4689.00,1881.01 4653.00,1818.65 4689.00,1756.30 4761.00,1756.30" fill="#111111" stroke="none" />
<polygon points="5359.50,1883.61 5323.50,1945.96 5251.50,1945.96 5215.50,1883.61 5251.50,1821.25 5323.50,1821.25" fill="#444444" stroke="none" />
<polygon points="1422.00,1948.56 1386.00,2010.91 1314.00,2010.91 1278.00,1948.56 1314.00,1886.20 1386.00,1886.20" fill="#111111" stroke="none" />
<polygon points="1534.50,2013.51 1498.50,2075.86 1426.50,2075.86 1390.50,2013.51 1426.50,1951.16 1498.50,1951.16" fill="#333333" stroke="none" />
<polygon points="1872.00,1948.56 1836.00,2010.91 1764.00,2010.91 1728.00,1948.56 1764.00,1886.20 1836.00,1886.20" fill="#444444" stroke="none" />
<polygon points="1984.50,2013.51 1948.50,2075.86 1876.50,2075.86 1840.50,2013.51 1876.50,1951.16 1948.50,1951.16" fill="#E21E26" stroke="none" />
<polygon points="2097.00,1948.56 2061.00,2010.91 1989.00,2010.91 1953.00,1948.56 1989.00,1886.20 2061.00,1886.20" fill="#2A2A2A" stroke="none" />
<polygon points="2322.00,1948.56 2286.00,2010.91 2214.00,2010.91 2178.00,1948.56 2214.00,1886.20 2286.00,1886.20" fill="#111111" stroke="none" />
<polygon points="2434.50,2013.51 2398.50,2075.86 2326.50,2075.86 2290.50,2013.51 2326.50,1951.16 2398.50,1951.16" fill="#E21E26" stroke="none" />
<polygon points="2547.00,1948.56 2511.00,2010.91 2439.00,2010.91 2403.00,1948.56 2439.00,1886.20 2511.00,1886.20" fill="#444444" stroke="none" />
<polygon points="2659.50,2013.51 2623.50,2075.86 2551.50,2075.86 2515.50,2013.51 2551.50,1951.16 2623.50,1951.16" fill="#111111" stroke="none" />
<polygon points="3109.50,2013.51 3073.50,2075.86 3001.50,2075.86 2965.50,2013.51 3001.50,1951.16 3073.50,1951.16" fill="#2A2A2A" stroke="none" />
<polygon points="3334.50,2013.51 3298.50,2075.86 3226.50,2075.86 3190.50,2013.51 3226.50,1951.16 3298.50,1951.16" fill="#111111" stroke="none" />
<polygon points="3447.00,1948.56 3411.00,2010.91 3339.00,2010.91 3303.00,1948.56 3339.00,1886.20 3411.00,1886.20" fill="#2A2A2A" stroke="none" />
<polygon points="3559.50,2013.51 3523.50,2075.86 3451.50,2075.86 3415.50,2013.51 3451.50,1951.16 3523.50,1951.16" fill="#333333" stroke="none" />
<polygon points="4122.00,1948.56 4086.00,2010.91 4014.00,2010.91 3978.00,1948.56 4014.00,1886.20 4086.00,1886.20" fill="#111111" stroke="none" />
<polygon points="4347.00,1948.56 4311.00,2010.91 4239.00,2010.91 4203.00,1948.56 4239.00,1886.20 4311.00,1886.20" fill="#111111" stroke="none" />
<polygon points="4459.50,2013.51 4423.50,2075.86 4351.50,2075.86 4315.50,2013.51 4351.50,1951.16 4423.50,1951.16" fill="#444444" stroke="none" />
<polygon points="4797.00,1948.56 4761.00,2010.91 4689.00,2010.91 4653.00,1948.56 4689.00,1886.20 4761.00,1886.20" fill="#111111" stroke="none" />
<polygon points="5134.50,2013.51 5098.50,2075.86 5026.50,2075.86 4990.50,2013.51 5026.50,1951.16 5098.50,1951.16" fill="#1A1A1A" stroke="none" />
<polygon points="1309.50,2143.41 1273.50,2205.77 1201.50,2205.77 1165.50,2143.41 1201.50,2081.06 1273.50,2081.06" fill="#111111" stroke="none" />
<polygon points="1872.00,2078.46 1836.00,2140.81 1764.00,2140.81 1728.00,2078.46 1764.00,2016.11 1836.00,2016.11" fill="#E21E26" stroke="none" />
<polygon points="1984.50,2143.41 1948.50,2205.77 1876.50,2205.77 1840.50,2143.41 1876.50,2081.06 1948.50,2081.06" fill="#111111" stroke="none" />
<polygon points="2322.00,2078.46 2286.00,2140.81 2214.00,2140.81 2178.00,2078.46 2214.00,2016.11 2286.00,2016.11" fill="#1A1A1A" stroke="none" />
<polygon points="2547.00,2078.46 2511.00,2140.81 2439.00,2140.81 2403.00,2078.46 2439.00,2016.11 2511.00,2016.11" fill="#444444" stroke="none" />
<polygon points="2659.50,2143.41 2623.50,2205.77 2551.50,2205.77 2515.50,2143.41 2551.50,2081.06 2623.50,2081.06" fill="#444444" stroke="none" />
<polygon points="2884.50,2143.41 2848.50,2205.77 2776.50,2205.77 2740.50,2143.41 2776.50,2081.06 2848.50,2081.06" fill="#333333" stroke="none" />
<polygon points="3222.00,2078.46 3186.00,2140.81 3114.00,2140.81 3078.00,2078.46 3114.00,2016.11 3186.00,2016.11" fill="#E21E26" stroke="none" />
<polygon points="3447.00,2078.46 3411.00,2140.81 3339.00,2140.81 3303.00,2078.46 3339.00,2016.11 3411.00,2016.11" fill="#2A2A2A" stroke="none" />
<polygon points="3784.50,2143.41 3748.50,2205.77 3676.50,2205.77 3640.50,2143.41 3676.50,2081.06 3748.50,2081.06" fill="#E21E26" stroke="none" />
<polygon points="4122.00,2078.46 4086.00,2140.81 4014.00,2140.81 3978.00,2078.46 4014.00,2016.11 4086.00,2016.11" fill="#333333" stroke="none" />
<polygon points="4234.50,2143.41 4198.50,2205.77 4126.50,2205.77 4090.50,2143.41 4126.50,2081.06 4198.50,2081.06" fill="#E21E26" stroke="none" />
<polygon points="4572.00,2078.46 4536.00,2140.81 4464.00,2140.81 4428.00,2078.46 4464.00,2016.11 4536.00,2016.11" fill="#444444" stroke="none" />
<polygon points="4797.00,2078.46 4761.00,2140.81 4689.00,2140.81 4653.00,2078.46 4689.00,2016.11 4761.00,2016.11" fill="#333333" stroke="none" />
<polygon points="5022.00,2078.46 4986.00,2140.81 4914.00,2140.81 4878.00,2078.46 4914.00,2016.11 4986.00,2016.11" fill="#2A2A2A" stroke="none" />
<polygon points="5359.50,2143.41 5323.50,2205.77 5251.50,2205.77 5215.50,2143.41 5251.50,2081.06 5323.50,2081.06" fill="#E21E26" stroke="none" />
<polygon points="634.50,2273.32 598.50,2335.67 526.50,2335.67 490.50,2273.32 526.50,2210.96 598.50,2210.96" fill="#111111" stroke="none" />
<polygon points="747.00,2208.36 711.00,2270.72 639.00,2270.72 603.00,2208.36 639.00,2146.01 711.00,2146.01" fill="#333333" stroke="none" />
<polygon points="859.50,2273.32 823.50,2335.67 751.50,2335.67 715.50,2273.32 751.50,2210.96 823.50,2210.96" fill="#1A1A1A" stroke="none" />
<polygon points="972.00,2208.36 936.00,2270.72 864.00,2270.72 828.00,2208.36 864.00,2146.01 936.00,2146.01" fill="#111111" stroke="none" />
<polygon points="1084.50,2273.32 1048.50,2335.67 976.50,2335.67 940.50,2273.32 976.50,2210.96 1048.50,2210.96" fill="#111111" stroke="none" />
<polygon points="1309.50,2273.32 1273.50,2335.67 1201.50,2335.67 1165.50,2273.32 1201.50,2210.96 1273.50,2210.96" fill="#111111" stroke="none" />
<polygon points="1647.00,2208.36 1611.00,2270.72 1539.00,2270.72 1503.00,2208.36 1539.00,2146.01 1611.00,2146.01" fill="#111111" stroke="none" />
<polygon points="1984.50,2273.32 1948.50,2335.67 1876.50,2335.67 1840.50,2273.32 1876.50,2210.96 1948.50,2210.96" fill="#333333" stroke="none" />
<polygon points="2322.00,2208.36 2286.00,2270.72 2214.00,2270.72 2178.00,2208.36 2214.00,2146.01 2286.00,2146.01" fill="#111111" stroke="none" />
<polygon points="2547.00,2208.36 2511.00,2270.72 2439.00,2270.72 2403.00,2208.36 2439.00,2146.01 2511.00,2146.01" fill="#444444" stroke="none" />
<polygon points="3334.50,2273.32 3298.50,2335.67 3226.50,2335.67 3190.50,2273.32 3226.50,2210.96 3298.50,2210.96" fill="#333333" stroke="none" />
<polygon points="3897.00,2208.36 3861.00,2270.72 3789.00,2270.72 3753.00,2208.36 3789.00,2146.01 3861.00,2146.01" fill="#111111" stroke="none" />
<polygon points="4122.00,2208.36 4086.00,2270.72 4014.00,2270.72 3978.00,2208.36 4014.00,2146.01 4086.00,2146.01" fill="#111111" stroke="none" />
<polygon points="4234.50,2273.32 4198.50,2335.67 4126.50,2335.67 4090.50,2273.32 4126.50,2210.96 4198.50,2210.96" fill="#111111" stroke="none" />
<polygon points="4347.00,2208.36 4311.00,2270.72 4239.00,2270.72 4203.00,2208.36 4239.00,2146.01 4311.00,2146.01" fill="#333333" stroke="none" />
<polygon points="4459.50,2273.32 4423.50,2335.67 4351.50,2335.67 4315.50,2273.32 4351.50,2210.96 4423.50,2210.96" fill="#E21E26" stroke="none" />
<polygon points="4684.50,2273.32 4648.50,2335.67 4576.50,2335.67 4540.50,2273.32 4576.50,2210.96 4648.50,2210.96" fill="#1A1A1A" stroke="none" />
<polygon points="5022.00,2208.36 4986.00,2270.72 4914.00,2270.72 4878.00,2208.36 4914.00,2146.01 4986.00,2146.01" fill="#333333" stroke="none" />
<polygon points="5134.50,2273.32 5098.50,2335.67 5026.50,2335.67 4990.50,2273.32 5026.50,2210.96 5098.50,2210.96" fill="#1A1A1A" stroke="none" />
<polygon points="972.00,2338.27 936.00,2400.62 864.00,2400.62 828.00,2338.27 864.00,2275.91 936.00,2275.91" fill="#333333" stroke="none" />
<polygon points="1084.50,2403.22 1048.50,2465.57 976.50,2465.57 940.50,2403.22 976.50,2340.87 1048.50,2340.87" fill="#E21E26" stroke="none" />
<polygon points="1309.50,2403.22 1273.50,2465.57 1201.50,2465.57 1165.50,2403.22 1201.50,2340.87 1273.50,2340.87" fill="#111111" stroke="none" />
<polygon points="1984.50,2403.22 1948.50,2465.57 1876.50,2465.57 1840.50,2403.22 1876.50,2340.87 1948.50,2340.87" fill="#333333" stroke="none" />
<polygon points="2209.50,2403.22 2173.50,2465.57 2101.50,2465.57 2065.50,2403.22 2101.50,2340.87 2173.50,2340.87" fill="#E21E26" stroke="none" />
<polygon points="2322.00,2338.27 2286.00,2400.62 2214.00,2400.62 2178.00,2338.27 2214.00,2275.91 2286.00,2275.91" fill="#2A2A2A" stroke="none" />
<polygon points="2659.50,2403.22 2623.50,2465.57 2551.50,2465.57 2515.50,2403.22 2551.50,2340.87 2623.50,2340.87" fill="#1A1A1A" stroke="none" />
<polygon points="2884.50,2403.22 2848.50,2465.57 2776.50,2465.57 2740.50,2403.22 2776.50,2340.87 2848.50,2340.87" fill="#444444" stroke="none" />
<polygon points="2997.00,2338.27 2961.00,2400.62 2889.00,2400.62 2853.00,2338.27 2889.00,2275.91 2961.00,2275.91" fill="#111111" stroke="none" />
<polygon points="3447.00,2338.27 3411.00,2400.62 3339.00,2400.62 3303.00,2338.27 3339.00,2275.91 3411.00,2275.91" fill="#2A2A2A" stroke="none" />
<polygon points="3897.00,2338.27 3861.00,2400.62 3789.00,2400.62 3753.00,2338.27 3789.00,2275.91 3861.00,2275.91" fill="#111111" stroke="none" />
<polygon points="4009.50,2403.22 3973.50,2465.57 3901.50,2465.57 3865.50,2403.22 3901.50,2340.87 3973.50,2340.87" fill="#2A2A2A" stroke="none" />
<polygon points="4797.00,2338.27 4761.00,2400.62 4689.00,2400.62 4653.00,2338.27 4689.00,2275.91 4761.00,2275.91" fill="#1A1A1A" stroke="none" />
<polygon points="4909.50,2403.22 4873.50,2465.57 4801.50,2465.57 4765.50,2403.22 4801.50,2340.87 4873.50,2340.87" fill="#1A1A1A" stroke="none" />
<polygon points="5022.00,2338.27 4986.00,2400.62 4914.00,2400.62 4878.00,2338.27 4914.00,2275.91 4986.00,2275.91" fill="#111111" stroke="none" />
<polygon points="1309.50,2533.12 1273.50,2595.48 1201.50,2595.48 1165.50,2533.12 1201.50,2470.77 1273.50,2470.77" fill="#2A2A2A" stroke="none" />
<polygon points="1534.50,2533.12 1498.50,2595.48 1426.50,2595.48 1390.50,2533.12 1426.50,2470.77 1498.50,2470.77" fill="#1A1A1A" stroke="none" />
<polygon points="1647.00,2468.17 1611.00,2530.53 1539.00,2530.53 1503.00,2468.17 1539.00,2405.82 1611.00,2405.82" fill="#2A2A2A" stroke="none" />
<polygon points="1872.00,2468.17 1836.00,2530.53 1764.00,2530.53 1728.00,2468.17 1764.00,2405.82 1836.00,2405.82" fill="#1A1A1A" stroke="none" />
<polygon points="1984.50,2533.12 1948.50,2595.48 1876.50,2595.48 1840.50,2533.12 1876.50,2470.77 1948.50,2470.77" fill="#444444" stroke="none" />
<polygon points="2097.00,2468.17 2061.00,2530.53 1989.00,2530.53 1953.00,2468.17 1989.00,2405.82 2061.00,2405.82" fill="#E21E26" stroke="none" />
<polygon points="2322.00,2468.17 2286.00,2530.53 2214.00,2530.53 2178.00,2468.17 2214.00,2405.82 2286.00,2405.82" fill="#E21E26" stroke="none" />
<polygon points="2434.50,2533.12 2398.50,2595.48 2326.50,2595.48 2290.50,2533.12 2326.50,2470.77 2398.50,2470.77" fill="#E21E26" stroke="none" />
<polygon points="2659.50,2533.12 2623.50,2595.48 2551.50,2595.48 2515.50,2533.12 2551.50,2470.77 2623.50,2470.77" fill="#E21E26" stroke="none" />
<polygon points="2772.00,2468.17 2736.00,2530.53 2664.00,2530.53 2628.00,2468.17 2664.00,2405.82 2736.00,2405.82" fill="#111111" stroke="none" />
<polygon points="2884.50,2533.12 2848.50,2595.48 2776.50,2595.48 2740.50,2533.12 2776.50,2470.77 2848.50,2470.77" fill="#333333" stroke="none" />
<polygon points="3334.50,2533.12 3298.50,2595.48 3226.50,2595.48 3190.50,2533.12 3226.50,2470.77 3298.50,2470.77" fill="#E21E26" stroke="none" />
<polygon points="3447.00,2468.17 3411.00,2530.53 3339.00,2530.53 3303.00,2468.17 3339.00,2405.82 3411.00,2405.82" fill="#1A1A1A" stroke="none" />
<polygon points="3559.50,2533.12 3523.50,2595.48 3451.50,2595.48 3415.50,2533.12 3451.50,2470.77 3523.50,2470.77" fill="#111111" stroke="none" />
<polygon points="3672.00,2468.17 3636.00,2530.53 3564.00,2530.53 3528.00,2468.17 3564.00,2405.82 3636.00,2405.82" fill="#444444" stroke="none" />
<polygon points="3784.50,2533.12 3748.50,2595.48 3676.50,2595.48 3640.50,2533.12 3676.50,2470.77 3748.50,2470.77" fill="#111111" stroke="none" />
<polygon points="4122.00,2468.17 4086.00,2530.53 4014.00,2530.53 3978.00,2468.17 4014.00,2405.82 4086.00,2405.82" fill="#E21E26" stroke="none" />
<polygon points="4234.50,2533.12 4198.50,2595.48 4126.50,2595.48 4090.50,2533.12 4126.50,2470.77 4198.50,2470.77" fill="#E21E26" stroke="none" />
<polygon points="4459.50,2533.12 4423.50,2595.48 4351.50,2595.48 4315.50,2533.12 4351.50,2470.77 4423.50,2470.77" fill="#E21E26" stroke="none" />
<polygon points="4684.50,2533.12 4648.50,2595.48 4576.50,2595.48 4540.50,2533.12 4576.50,2470.77 4648.50,2470.77" fill="#111111" stroke="none" />
<polygon points="4797.00,2468.17 4761.00,2530.53 4689.00,2530.53 4653.00,2468.17 4689.00,2405.82 4761.00,2405.82" fill="#111111" stroke="none" />
<polygon points="5022.00,2468.17 4986.00,2530.53 4914.00,2530.53 4878.00,2468.17 4914.00,2405.82 4986.00,2405.82" fill="#1A1A1A" stroke="none" />
<polygon points="5134.50,2533.12 5098.50,2595.48 5026.50,2595.48 4990.50,2533.12 5026.50,2470.77 5098.50,2470.77" fill="#333333" stroke="none" />
<polygon points="5359.50,2533.12 5323.50,2595.48 5251.50,2595.48 5215.50,2533.12 5251.50,2470.77 5323.50,2470.77" fill="#2A2A2A" stroke="none" />
<polygon points="634.50,2663.03 598.50,2725.38 526.50,2725.38 490.50,2663.03 526.50,2600.67 598.50,2600.67" fill="#E21E26" stroke="none" />
<polygon points="859.50,2663.03 823.50,2725.38 751.50,2725.38 715.50,2663.03 751.50,2600.67 823.50,2600.67" fill="#111111" stroke="none" />
<polygon points="972.00,2598.08 936.00,2660.43 864.00,2660.43 828.00,2598.08 864.00,2535.72 936.00,2535.72" fill="#1A1A1A" stroke="none" />
<polygon points="1309.50,2663.03 1273.50,2725.38 1201.50,2725.38 1165.50,2663.03 1201.50,2600.67 1273.50,2600.67" fill="#444444" stroke="none" />
<polygon points="1534.50,2663.03 1498.50,2725.38 1426.50,2725.38 1390.50,2663.03 1426.50,2600.67 1498.50,2600.67" fill="#111111" stroke="none" />
<polygon points="1759.50,2663.03 1723.50,2725.38 1651.50,2725.38 1615.50,2663.03 1651.50,2600.67 1723.50,2600.67" fill="#111111" stroke="none" />
<polygon points="1872.00,2598.08 1836.00,2660.43 1764.00,2660.43 1728.00,2598.08 1764.00,2535.72 1836.00,2535.72" fill="#444444" stroke="none" />
<polygon points="1984.50,2663.03 1948.50,2725.38 1876.50,2725.38 1840.50,2663.03 1876.50,2600.67 1948.50,2600.67" fill="#444444" stroke="none" />
<polygon points="2209.50,2663.03 2173.50,2725.38 2101.50,2725.38 2065.50,2663.03 2101.50,2600.67 2173.50,2600.67" fill="#E21E26" stroke="none" />
<polygon points="2547.00,2598.08 2511.00,2660.43 2439.00,2660.43 2403.00,2598.08 2439.00,2535.72 2511.00,2535.72" fill="#1A1A1A" stroke="none" />
<polygon points="2997.00,2598.08 2961.00,2660.43 2889.00,2660.43 2853.00,2598.08 2889.00,2535.72 2961.00,2535.72" fill="#333333" stroke="none" />
<polygon points="3334.50,2663.03 3298.50,2725.38 3226.50,2725.38 3190.50,2663.03 3226.50,2600.67 3298.50,2600.67" fill="#444444" stroke="none" />
<polygon points="3559.50,2663.03 3523.50,2725.38 3451.50,2725.38 3415.50,2663.03 3451.50,2600.67 3523.50,2600.67" fill="#444444" stroke="none" />
<polygon points="3784.50,2663.03 3748.50,2725.38 3676.50,2725.38 3640.50,2663.03 3676.50,2600.67 3748.50,2600.67" fill="#111111" stroke="none" />
<polygon points="4572.00,2598.08 4536.00,2660.43 4464.00,2660.43 4428.00,2598.08 4464.00,2535.72 4536.00,2535.72" fill="#111111" stroke="none" />
<polygon points="4797.00,2598.08 4761.00,2660.43 4689.00,2660.43 4653.00,2598.08 4689.00,2535.72 4761.00,2535.72" fill="#111111" stroke="none" />
<polygon points="5134.50,2663.03 5098.50,2725.38 5026.50,2725.38 4990.50,2663.03 5026.50,2600.67 5098.50,2600.67" fill="#111111" stroke="none" />
<polygon points="5584.50,2663.03 5548.50,2725.38 5476.50,2725.38 5440.50,2663.03 5476.50,2600.67 5548.50,2600.67" fill="#111111" stroke="none" />
<polygon points="5697.00,2598.08 5661.00,2660.43 5589.00,2660.43 5553.00,2598.08 5589.00,2535.72 5661.00,2535.72" fill="#333333" stroke="none" />
<polygon points="859.50,2792.93 823.50,2855.29 751.50,2855.29 715.50,2792.93 751.50,2730.58 823.50,2730.58" fill="#444444" stroke="none" />
<polygon points="1197.00,2727.98 1161.00,2790.33 1089.00,2790.33 1053.00,2727.98 1089.00,2665.63 1161.00,2665.63" fill="#2A2A2A" stroke="none" />
<polygon points="1309.50,2792.93 1273.50,2855.29 1201.50,2855.29 1165.50,2792.93 1201.50,2730.58 1273.50,2730.58" fill="#111111" stroke="none" />
<polygon points="1872.00,2727.98 1836.00,2790.33 1764.00,2790.33 1728.00,2727.98 1764.00,2665.63 1836.00,2665.63" fill="#E21E26" stroke="none" />
<polygon points="2209.50,2792.93 2173.50,2855.29 2101.50,2855.29 2065.50,2792.93 2101.50,2730.58 2173.50,2730.58" fill="#111111" stroke="none" />
<polygon points="2322.00,2727.98 2286.00,2790.33 2214.00,2790.33 2178.00,2727.98 2214.00,2665.63 2286.00,2665.63" fill="#111111" stroke="none" />
<polygon points="2772.00,2727.98 2736.00,2790.33 2664.00,2790.33 2628.00,2727.98 2664.00,2665.63 2736.00,2665.63" fill="#E21E26" stroke="none" />
<polygon points="2997.00,2727.98 2961.00,2790.33 2889.00,2790.33 2853.00,2727.98 2889.00,2665.63 2961.00,2665.63" fill="#111111" stroke="none" />
<polygon points="3109.50,2792.93 3073.50,2855.29 3001.50,2855.29 2965.50,2792.93 3001.50,2730.58 3073.50,2730.58" fill="#333333" stroke="none" />
<polygon points="3447.00,2727.98 3411.00,2790.33 3339.00,2790.33 3303.00,2727.98 3339.00,2665.63 3411.00,2665.63" fill="#111111" stroke="none" />
<polygon points="3559.50,2792.93 3523.50,2855.29 3451.50,2855.29 3415.50,2792.93 3451.50,2730.58 3523.50,2730.58" fill="#111111" stroke="none" />
<polygon points="3672.00,2727.98 3636.00,2790.33 3564.00,2790.33 3528.00,2727.98 3564.00,2665.63 3636.00,2665.63" fill="#111111" stroke="none" />
<polygon points="4347.00,2727.98 4311.00,2790.33 4239.00,2790.33 4203.00,2727.98 4239.00,2665.63 4311.00,2665.63" fill="#444444" stroke="none" />
<polygon points="4459.50,2792.93 4423.50,2855.29 4351.50,2855.29 4315.50,2792.93 4351.50,2730.58 4423.50,2730.58" fill="#444444" stroke="none" />
<polygon points="4684.50,2792.93 4648.50,2855.29 4576.50,2855.29 4540.50,2792.93 4576.50,2730.58 4648.50,2730.58" fill="#111111" stroke="none" />
<polygon points="4909.50,2792.93 4873.50,2855.29 4801.50,2855.29 4765.50,2792.93 4801.50,2730.58 4873.50,2730.58" fill="#111111" stroke="none" />
<polygon points="5134.50,2792.93 5098.50,2855.29 5026.50,2855.29 4990.50,2792.93 5026.50,2730.58 5098.50,2730.58" fill="#E21E26" stroke="none" />
<polygon points="5472.00,2727.98 5436.00,2790.33 5364.00,2790.33 5328.00,2727.98 5364.00,2665.63 5436.00,2665.63" fill="#2A2A2A" stroke="none" />
<polygon points="747.00,2857.88 711.00,2920.24 639.00,2920.24 603.00,2857.88 639.00,2795.53 711.00,2795.53" fill="#E21E26" stroke="none" />
<polygon points="1197.00,2857.88 1161.00,2920.24 1089.00,2920.24 1053.00,2857.88 1089.00,2795.53 1161.00,2795.53" fill="#1A1A1A" stroke="none" />
<polygon points="1647.00,2857.88 1611.00,2920.24 1539.00,2920.24 1503.00,2857.88 1539.00,2795.53 1611.00,2795.53" fill="#E21E26" stroke="none" />
<polygon points="1872.00,2857.88 1836.00,2920.24 1764.00,2920.24 1728.00,2857.88 1764.00,2795.53 1836.00,2795.53" fill="#333333" stroke="none" />
<polygon points="2097.00,2857.88 2061.00,2920.24 1989.00,2920.24 1953.00,2857.88 1989.00,2795.53 2061.00,2795.53" fill="#444444" stroke="none" />
<polygon points="2772.00,2857.88 2736.00,2920.24 2664.00,2920.24 2628.00,2857.88 2664.00,2795.53 2736.00,2795.53" fill="#333333" stroke="none" />
<polygon points="3109.50,2922.84 3073.50,2985.19 3001.50,2985.19 2965.50,2922.84 3001.50,2860.48 3073.50,2860.48" fill="#111111" stroke="none" />
<polygon points="3222.00,2857.88 3186.00,2920.24 3114.00,2920.24 3078.00,2857.88 3114.00,2795.53 3186.00,2795.53" fill="#111111" stroke="none" />
<polygon points="3447.00,2857.88 3411.00,2920.24 3339.00,2920.24 3303.00,2857.88 3339.00,2795.53 3411.00,2795.53" fill="#1A1A1A" stroke="none" />
<polygon points="4009.50,2922.84 3973.50,2985.19 3901.50,2985.19 3865.50,2922.84 3901.50,2860.48 3973.50,2860.48" fill="#E21E26" stroke="none" />
<polygon points="4234.50,2922.84 4198.50,2985.19 4126.50,2985.19 4090.50,2922.84 4126.50,2860.48 4198.50,2860.48" fill="#E21E26" stroke="none" />
<polygon points="4684.50,2922.84 4648.50,2985.19 4576.50,2985.19 4540.50,2922.84 4576.50,2860.48 4648.50,2860.48" fill="#444444" stroke="none" />
<polygon points="4909.50,2922.84 4873.50,2985.19 4801.50,2985.19 4765.50,2922.84 4801.50,2860.48 4873.50,2860.48" fill="#2A2A2A" stroke="none" />
<polygon points="5022.00,2857.88 4986.00,2920.24 4914.00,2920.24 4878.00,2857.88 4914.00,2795.53 4986.00,2795.53" fill="#111111" stroke="none" />
<polygon points="5134.50,2922.84 5098.50,2985.19 5026.50,2985.19 4990.50,2922.84 5026.50,2860.48 5098.50,2860.48" fill="#E21E26" stroke="none" />
<polygon points="5809.50,2922.84 5773.50,2985.19 5701.50,2985.19 5665.50,2922.84 5701.50,2860.48 5773.50,2860.48" fill="#E21E26" stroke="none" />
<polygon points="522.00,2987.79 486.00,3050.14 414.00,3050.14 378.00,2987.79 414.00,2925.43 486.00,2925.43" fill="#E21E26" stroke="none" />
<polygon points="747.00,2987.79 711.00,3050.14 639.00,3050.14 603.00,2987.79 639.00,2925.43 711.00,2925.43" fill="#1A1A1A" stroke="none" />
<polygon points="972.00,2987.79 936.00,3050.14 864.00,3050.14 828.00,2987.79 864.00,2925.43 936.00,2925.43" fill="#333333" stroke="none" />
<polygon points="1422.00,2987.79 1386.00,3050.14 1314.00,3050.14 1278.00,2987.79 1314.00,2925.43 1386.00,2925.43" fill="#444444" stroke="none" />
<polygon points="1647.00,2987.79 1611.00,3050.14 1539.00,3050.14 1503.00,2987.79 1539.00,2925.43 1611.00,2925.43" fill="#111111" stroke="none" />
<polygon points="1872.00,2987.79 1836.00,3050.14 1764.00,3050.14 1728.00,2987.79 1764.00,2925.43 1836.00,2925.43" fill="#444444" stroke="none" />
<polygon points="2434.50,3052.74 2398.50,3115.09 2326.50,3115.09 2290.50,3052.74 2326.50,2990.39 2398.50,2990.39" fill="#2A2A2A" stroke="none" />
<polygon points="2659.50,3052.74 2623.50,3115.09 2551.50,3115.09 2515.50,3052.74 2551.50,2990.39 2623.50,2990.39" fill="#444444" stroke="none" />
<polygon points="2884.50,3052.74 2848.50,3115.09 2776.50,3115.09 2740.50,3052.74 2776.50,2990.39 2848.50,2990.39" fill="#111111" stroke="none" />
<polygon points="3447.00,2987.79 3411.00,3050.14 3339.00,3050.14 3303.00,2987.79 3339.00,2925.43 3411.00,2925.43" fill="#2A2A2A" stroke="none" />
<polygon points="3784.50,3052.74 3748.50,3115.09 3676.50,3115.09 3640.50,3052.74 3676.50,2990.39 3748.50,2990.39" fill="#E21E26" stroke="none" />
<polygon points="3897.00,2987.79 3861.00,3050.14 3789.00,3050.14 3753.00,2987.79 3789.00,2925.43 3861.00,2925.43" fill="#333333" stroke="none" />
<polygon points="4009.50,3052.74 3973.50,3115.09 3901.50,3115.09 3865.50,3052.74 3901.50,2990.39 3973.50,2990.39" fill="#444444" stroke="none" />
<polygon points="4122.00,2987.79 4086.00,3050.14 4014.00,3050.14 3978.00,2987.79 4014.00,2925.43 4086.00,2925.43" fill="#111111" stroke="none" />
<polygon points="4234.50,3052.74 4198.50,3115.09 4126.50,3115.09 4090.50,3052.74 4126.50,2990.39 4198.50,2990.39" fill="#111111" stroke="none" />
<polygon points="4347.00,2987.79 4311.00,3050.14 4239.00,3050.14 4203.00,2987.79 4239.00,2925.43 4311.00,2925.43" fill="#333333" stroke="none" />
<polygon points="4572.00,2987.79 4536.00,3050.14 4464.00,3050.14 4428.00,2987.79 4464.00,2925.43 4536.00,2925.43" fill="#111111" stroke="none" />
<polygon points="5022.00,2987.79 4986.00,3050.14 4914.00,3050.14 4878.00,2987.79 4914.00,2925.43 4986.00,2925.43" fill="#333333" stroke="none" />
<polygon points="5247.00,2987.79 5211.00,3050.14 5139.00,3050.14 5103.00,2987.79 5139.00,2925.43 5211.00,2925.43" fill="#444444" stroke="none" />
<polygon points="859.50,3182.64 823.50,3245.00 751.50,3245.00 715.50,3182.64 751.50,3120.29 823.50,3120.29" fill="#E21E26" stroke="none" />
<polygon points="972.00,3117.69 936.00,3180.05 864.00,3180.05 828.00,3117.69 864.00,3055.34 936.00,3055.34" fill="#111111" stroke="none" />
<polygon points="1197.00,3117.69 1161.00,3180.05 1089.00,3180.05 1053.00,3117.69 1089.00,3055.34 1161.00,3055.34" fill="#E21E26" stroke="none" />
<polygon points="1309.50,3182.64 1273.50,3245.00 1201.50,3245.00 1165.50,3182.64 1201.50,3120.29 1273.50,3120.29" fill="#1A1A1A" stroke="none" />
<polygon points="1534.50,3182.64 1498.50,3245.00 1426.50,3245.00 1390.50,3182.64 1426.50,3120.29 1498.50,3120.29" fill="#333333" stroke="none" />
<polygon points="1647.00,3117.69 1611.00,3180.05 1539.00,3180.05 1503.00,3117.69 1539.00,3055.34 1611.00,3055.34" fill="#333333" stroke="none" />
<polygon points="1984.50,3182.64 1948.50,3245.00 1876.50,3245.00 1840.50,3182.64 1876.50,3120.29 1948.50,3120.29" fill="#111111" stroke="none" />
<polygon points="2322.00,3117.69 2286.00,3180.05 2214.00,3180.05 2178.00,3117.69 2214.00,3055.34 2286.00,3055.34" fill="#111111" stroke="none" />
<polygon points="2434.50,3182.64 2398.50,3245.00 2326.50,3245.00 2290.50,3182.64 2326.50,3120.29 2398.50,3120.29" fill="#444444" stroke="none" />
<polygon points="2772.00,3117.69 2736.00,3180.05 2664.00,3180.05 2628.00,3117.69 2664.00,3055.34 2736.00,3055.34" fill="#2A2A2A" stroke="none" />
<polygon points="2884.50,3182.64 2848.50,3245.00 2776.50,3245.00 2740.50,3182.64 2776.50,3120.29 2848.50,3120.29" fill="#E21E26" stroke="none" />
<polygon points="2997.00,3117.69 2961.00,3180.05 2889.00,3180.05 2853.00,3117.69 2889.00,3055.34 2961.00,3055.34" fill="#E21E26" stroke="none" />
<polygon points="3334.50,3182.64 3298.50,3245.00 3226.50,3245.00 3190.50,3182.64 3226.50,3120.29 3298.50,3120.29" fill="#111111" stroke="none" />
<polygon points="3447.00,3117.69 3411.00,3180.05 3339.00,3180.05 3303.00,3117.69 3339.00,3055.34 3411.00,3055.34" fill="#444444" stroke="none" />
<polygon points="3897.00,3117.69 3861.00,3180.05 3789.00,3180.05 3753.00,3117.69 3789.00,3055.34 3861.00,3055.34" fill="#2A2A2A" stroke="none" />
<polygon points="4234.50,3182.64 4198.50,3245.00 4126.50,3245.00 4090.50,3182.64 4126.50,3120.29 4198.50,3120.29" fill="#333333" stroke="none" />
<polygon points="4572.00,3117.69 4536.00,3180.05 4464.00,3180.05 4428.00,3117.69 4464.00,3055.34 4536.00,3055.34" fill="#111111" stroke="none" />
<polygon points="4684.50,3182.64 4648.50,3245.00 4576.50,3245.00 4540.50,3182.64 4576.50,3120.29 4648.50,3120.29" fill="#2A2A2A" stroke="none" />
<polygon points="5359.50,3182.64 5323.50,3245.00 5251.50,3245.00 5215.50,3182.64 5251.50,3120.29 5323.50,3120.29" fill="#111111" stroke="none" />
<polygon points="5697.00,3117.69 5661.00,3180.05 5589.00,3180.05 5553.00,3117.69 5589.00,3055.34 5661.00,3055.34" fill="#111111" stroke="none" />
<polygon points="522.00,3247.60 486.00,3309.95 414.00,3309.95 378.00,3247.60 414.00,3185.24 486.00,3185.24" fill="#2A2A2A" stroke="none" />
<polygon points="747.00,3247.60 711.00,3309.95 639.00,3309.95 603.00,3247.60 639.00,3185.24 711.00,3185.24" fill="#E21E26" stroke="none" />
<polygon points="972.00,3247.60 936.00,3309.95 864.00,3309.95 828.00,3247.60 864.00,3185.24 936.00,3185.24" fill="#1A1A1A" stroke="none" />
<polygon points="1084.50,3312.55 1048.50,3374.90 976.50,3374.90 940.50,3312.55 976.50,3250.19 1048.50,3250.19" fill="#E21E26" stroke="none" />
<polygon points="1197.00,3247.60 1161.00,3309.95 1089.00,3309.95 1053.00,3247.60 1089.00,3185.24 1161.00,3185.24" fill="#444444" stroke="none" />
<polygon points="1309.50,3312.55 1273.50,3374.90 1201.50,3374.90 1165.50,3312.55 1201.50,3250.19 1273.50,3250.19" fill="#E21E26" stroke="none" />
<polygon points="1759.50,3312.55 1723.50,3374.90 1651.50,3374.90 1615.50,3312.55 1651.50,3250.19 1723.50,3250.19" fill="#2A2A2A" stroke="none" />
<polygon points="2209.50,3312.55 2173.50,3374.90 2101.50,3374.90 2065.50,3312.55 2101.50,3250.19 2173.50,3250.19" fill="#2A2A2A" stroke="none" />
<polygon points="2322.00,3247.60 2286.00,3309.95 2214.00,3309.95 2178.00,3247.60 2214.00,3185.24 2286.00,3185.24" fill="#1A1A1A" stroke="none" />
<polygon points="2547.00,3247.60 2511.00,3309.95 2439.00,3309.95 2403.00,3247.60 2439.00,3185.24 2511.00,3185.24" fill="#333333" stroke="none" />
<polygon points="2884.50,3312.55 2848.50,3374.90 2776.50,3374.90 2740.50,3312.55 2776.50,3250.19 2848.50,3250.19" fill="#444444" stroke="none" />
<polygon points="3447.00,3247.60 3411.00,3309.95 3339.00,3309.95 3303.00,3247.60 3339.00,3185.24 3411.00,3185.24" fill="#1A1A1A" stroke="none" />
<polygon points="3559.50,3312.55 3523.50,3374.90 3451.50,3374.90 3415.50,3312.55 3451.50,3250.19 3523.50,3250.19" fill="#333333" stroke="none" />
<polygon points="3672.00,3247.60 3636.00,3309.95 3564.00,3309.95 3528.00,3247.60 3564.00,3185.24 3636.00,3185.24" fill="#E21E26" stroke="none" />
<polygon points="3897.00,3247.60 3861.00,3309.95 3789.00,3309.95 3753.00,3247.60 3789.00,3185.24 3861.00,3185.24" fill="#E21E26" stroke="none" />
<polygon points="4122.00,3247.60 4086.00,3309.95 4014.00,3309.95 3978.00,3247.60 4014.00,3185.24 4086.00,3185.24" fill="#111111" stroke="none" />
<polygon points="4459.50,3312.55 4423.50,3374.90 4351.50,3374.90 4315.50,3312.55 4351.50,3250.19 4423.50,3250.19" fill="#111111" stroke="none" />
<polygon points="4572.00,3247.60 4536.00,3309.95 4464.00,3309.95 4428.00,3247.60 4464.00,3185.24 4536.00,3185.24" fill="#E21E26" stroke="none" />
<polygon points="4797.00,3247.60 4761.00,3309.95 4689.00,3309.95 4653.00,3247.60 4689.00,3185.24 4761.00,3185.24" fill="#333333" stroke="none" />
<polygon points="4909.50,3312.55 4873.50,3374.90 4801.50,3374.90 4765.50,3312.55 4801.50,3250.19 4873.50,3250.19" fill="#111111" stroke="none" />
<polygon points="5134.50,3312.55 5098.50,3374.90 5026.50,3374.90 4990.50,3312.55 5026.50,3250.19 5098.50,3250.19" fill="#E21E26" stroke="none" />
<polygon points="5472.00,3247.60 5436.00,3309.95 5364.00,3309.95 5328.00,3247.60 5364.00,3185.24 5436.00,3185.24" fill="#2A2A2A" stroke="none" />
<polygon points="5697.00,3247.60 5661.00,3309.95 5589.00,3309.95 5553.00,3247.60 5589.00,3185.24 5661.00,3185.24" fill="#111111" stroke="none" />
<polygon points="972.00,3377.50 936.00,3439.85 864.00,3439.85 828.00,3377.50 864.00,3315.15 936.00,3315.15" fill="#333333" stroke="none" />
<polygon points="1534.50,3442.45 1498.50,3504.80 1426.50,3504.80 1390.50,3442.45 1426.50,3380.10 1498.50,3380.10" fill="#333333" stroke="none" />
<polygon points="1759.50,3442.45 1723.50,3504.80 1651.50,3504.80 1615.50,3442.45 1651.50,3380.10 1723.50,3380.10" fill="#1A1A1A" stroke="none" />
<polygon points="1872.00,3377.50 1836.00,3439.85 1764.00,3439.85 1728.00,3377.50 1764.00,3315.15 1836.00,3315.15" fill="#111111" stroke="none" />
<polygon points="2097.00,3377.50 2061.00,3439.85 1989.00,3439.85 1953.00,3377.50 1989.00,3315.15 2061.00,3315.15" fill="#444444" stroke="none" />
<polygon points="2322.00,3377.50 2286.00,3439.85 2214.00,3439.85 2178.00,3377.50 2214.00,3315.15 2286.00,3315.15" fill="#E21E26" stroke="none" />
<polygon points="2434.50,3442.45 2398.50,3504.80 2326.50,3504.80 2290.50,3442.45 2326.50,3380.10 2398.50,3380.10" fill="#111111" stroke="none" />
<polygon points="2659.50,3442.45 2623.50,3504.80 2551.50,3504.80 2515.50,3442.45 2551.50,3380.10 2623.50,3380.10" fill="#444444" stroke="none" />
<polygon points="3109.50,3442.45 3073.50,3504.80 3001.50,3504.80 2965.50,3442.45 3001.50,3380.10 3073.50,3380.10" fill="#2A2A2A" stroke="none" />
<polygon points="3334.50,3442.45 3298.50,3504.80 3226.50,3504.80 3190.50,3442.45 3226.50,3380.10 3298.50,3380.10" fill="#E21E26" stroke="none" />
<polygon points="3784.50,3442.45 3748.50,3504.80 3676.50,3504.80 3640.50,3442.45 3676.50,3380.10 3748.50,3380.10" fill="#E21E26" stroke="none" />
<polygon points="4122.00,3377.50 4086.00,3439.85 4014.00,3439.85 3978.00,3377.50 4014.00,3315.15 4086.00,3315.15" fill="#1A1A1A" stroke="none" />
<polygon points="4234.50,3442.45 4198.50,3504.80 4126.50,3504.80 4090.50,3442.45 4126.50,3380.10 4198.50,3380.10" fill="#111111" stroke="none" />
<polygon points="4347.00,3377.50 4311.00,3439.85 4239.00,3439.85 4203.00,3377.50 4239.00,3315.15 4311.00,3315.15" fill="#E21E26" stroke="none" />
<polygon points="4459.50,3442.45 4423.50,3504.80 4351.50,3504.80 4315.50,3442.45 4351.50,3380.10 4423.50,3380.10" fill="#111111" stroke="none" />
<polygon points="4684.50,3442.45 4648.50,3504.80 4576.50,3504.80 4540.50,3442.45 4576.50,3380.10 4648.50,3380.10" fill="#444444" stroke="none" />
<polygon points="5022.00,3377.50 4986.00,3439.85 4914.00,3439.85 4878.00,3377.50 4914.00,3315.15 4986.00,3315.15" fill="#E21E26" stroke="none" />
<polygon points="5134.50,3442.45 5098.50,3504.80 5026.50,3504.80 4990.50,3442.45 5026.50,3380.10 5098.50,3380.10" fill="#2A2A2A" stroke="none" />
<polygon points="522.00,3507.40 486.00,3569.76 414.00,3569.76 378.00,3507.40 414.00,3445.05 486.00,3445.05" fill="#1A1A1A" stroke="none" />
<polygon points="634.50,3572.35 598.50,3634.71 526.50,3634.71 490.50,3572.35 526.50,3510.00 598.50,3510.00" fill="#111111" stroke="none" />
<polygon points="859.50,3572.35 823.50,3634.71 751.50,3634.71 715.50,3572.35 751.50,3510.00 823.50,3510.00" fill="#111111" stroke="none" />
<polygon points="1084.50,3572.35 1048.50,3634.71 976.50,3634.71 940.50,3572.35 976.50,3510.00 1048.50,3510.00" fill="#111111" stroke="none" />
<polygon points="1197.00,3507.40 1161.00,3569.76 1089.00,3569.76 1053.00,3507.40 1089.00,3445.05 1161.00,3445.05" fill="#111111" stroke="none" />
<polygon points="1309.50,3572.35 1273.50,3634.71 1201.50,3634.71 1165.50,3572.35 1201.50,3510.00 1273.50,3510.00" fill="#111111" stroke="none" />
<polygon points="1759.50,3572.35 1723.50,3634.71 1651.50,3634.71 1615.50,3572.35 1651.50,3510.00 1723.50,3510.00" fill="#111111" stroke="none" />
<polygon points="1872.00,3507.40 1836.00,3569.76 1764.00,3569.76 1728.00,3507.40 1764.00,3445.05 1836.00,3445.05" fill="#E21E26" stroke="none" />
<polygon points="1984.50,3572.35 1948.50,3634.71 1876.50,3634.71 1840.50,3572.35 1876.50,3510.00 1948.50,3510.00" fill="#111111" stroke="none" />
<polygon points="2097.00,3507.40 2061.00,3569.76 1989.00,3569.76 1953.00,3507.40 1989.00,3445.05 2061.00,3445.05" fill="#111111" stroke="none" />
<polygon points="2547.00,3507.40 2511.00,3569.76 2439.00,3569.76 2403.00,3507.40 2439.00,3445.05 2511.00,3445.05" fill="#111111" stroke="none" />
<polygon points="3109.50,3572.35 3073.50,3634.71 3001.50,3634.71 2965.50,3572.35 3001.50,3510.00 3073.50,3510.00" fill="#E21E26" stroke="none" />
<polygon points="3447.00,3507.40 3411.00,3569.76 3339.00,3569.76 3303.00,3507.40 3339.00,3445.05 3411.00,3445.05" fill="#E21E26" stroke="none" />
<polygon points="3672.00,3507.40 3636.00,3569.76 3564.00,3569.76 3528.00,3507.40 3564.00,3445.05 3636.00,3445.05" fill="#444444" stroke="none" />
<polygon points="4122.00,3507.40 4086.00,3569.76 4014.00,3569.76 3978.00,3507.40 4014.00,3445.05 4086.00,3445.05" fill="#E21E26" stroke="none" />
<polygon points="4347.00,3507.40 4311.00,3569.76 4239.00,3569.76 4203.00,3507.40 4239.00,3445.05 4311.00,3445.05" fill="#111111" stroke="none" />
<polygon points="5022.00,3507.40 4986.00,3569.76 4914.00,3569.76 4878.00,3507.40 4914.00,3445.05 4986.00,3445.05" fill="#444444" stroke="none" />
<polygon points="5359.50,3572.35 5323.50,3634.71 5251.50,3634.71 5215.50,3572.35 5251.50,3510.00 5323.50,3510.00" fill="#333333" stroke="none" />
<polygon points="1197.00,3637.31 1161.00,3699.66 1089.00,3699.66 1053.00,3637.31 1089.00,3574.95 1161.00,3574.95" fill="#E21E26" stroke="none" />
<polygon points="1309.50,3702.26 1273.50,3764.61 1201.50,3764.61 1165.50,3702.26 1201.50,3639.90 1273.50,3639.90" fill="#444444" stroke="none" />
<polygon points="1534.50,3702.26 1498.50,3764.61 1426.50,3764.61 1390.50,3702.26 1426.50,3639.90 1498.50,3639.90" fill="#1A1A1A" stroke="none" />
<polygon points="2209.50,3702.26 2173.50,3764.61 2101.50,3764.61 2065.50,3702.26 2101.50,3639.90 2173.50,3639.90" fill="#444444" stroke="none" />
<polygon points="2322.00,3637.31 2286.00,3699.66 2214.00,3699.66 2178.00,3637.31 2214.00,3574.95 2286.00,3574.95" fill="#333333" stroke="none" />
<polygon points="2659.50,3702.26 2623.50,3764.61 2551.50,3764.61 2515.50,3702.26 2551.50,3639.90 2623.50,3639.90" fill="#E21E26" stroke="none" />
<polygon points="2772.00,3637.31 2736.00,3699.66 2664.00,3699.66 2628.00,3637.31 2664.00,3574.95 2736.00,3574.95" fill="#111111" stroke="none" />
<polygon points="2997.00,3637.31 2961.00,3699.66 2889.00,3699.66 2853.00,3637.31 2889.00,3574.95 2961.00,3574.95" fill="#E21E26" stroke="none" />
<polygon points="3109.50,3702.26 3073.50,3764.61 3001.50,3764.61 2965.50,3702.26 3001.50,3639.90 3073.50,3639.90" fill="#E21E26" stroke="none" />
<polygon points="3672.00,3637.31 3636.00,3699.66 3564.00,3699.66 3528.00,3637.31 3564.00,3574.95 3636.00,3574.95" fill="#2A2A2A" stroke="none" />
<polygon points="4009.50,3702.26 3973.50,3764.61 3901.50,3764.61 3865.50,3702.26 3901.50,3639.90 3973.50,3639.90" fill="#1A1A1A" stroke="none" />
<polygon points="4122.00,3637.31 4086.00,3699.66 4014.00,3699.66 3978.00,3637.31 4014.00,3574.95 4086.00,3574.95" fill="#333333" stroke="none" />
<polygon points="4234.50,3702.26 4198.50,3764.61 4126.50,3764.61 4090.50,3702.26 4126.50,3639.90 4198.50,3639.90" fill="#E21E26" stroke="none" />
<polygon points="4797.00,3637.31 4761.00,3699.66 4689.00,3699.66 4653.00,3637.31 4689.00,3574.95 4761.00,3574.95" fill="#1A1A1A" stroke="none" />
<polygon points="5022.00,3637.31 4986.00,3699.66 4914.00,3699.66 4878.00,3637.31 4914.00,3574.95 4986.00,3574.95" fill="#333333" stroke="none" />
<polygon points="5584.50,3702.26 5548.50,3764.61 5476.50,3764.61 5440.50,3702.26 5476.50,3639.90 5548.50,3639.90" fill="#444444" stroke="none" />
<polygon points="634.50,3832.16 598.50,3894.52 526.50,3894.52 490.50,3832.16 526.50,3769.81 598.50,3769.81" fill="#333333" stroke="none" />
<polygon points="747.00,3767.21 711.00,3829.56 639.00,3829.56 603.00,3767.21 639.00,3704.86 711.00,3704.86" fill="#E21E26" stroke="none" />
<polygon points="972.00,3767.21 936.00,3829.56 864.00,3829.56 828.00,3767.21 864.00,3704.86 936.00,3704.86" fill="#111111" stroke="none" />
<polygon points="1084.50,3832.16 1048.50,3894.52 976.50,3894.52 940.50,3832.16 976.50,3769.81 1048.50,3769.81" fill="#111111" stroke="none" />
<polygon points="1197.00,3767.21 1161.00,3829.56 1089.00,3829.56 1053.00,3767.21 1089.00,3704.86 1161.00,3704.86" fill="#111111" stroke="none" />
<polygon points="1422.00,3767.21 1386.00,3829.56 1314.00,3829.56 1278.00,3767.21 1314.00,3704.86 1386.00,3704.86" fill="#111111" stroke="none" />
<polygon points="1984.50,3832.16 1948.50,3894.52 1876.50,3894.52 1840.50,3832.16 1876.50,3769.81 1948.50,3769.81" fill="#333333" stroke="none" />
<polygon points="2434.50,3832.16 2398.50,3894.52 2326.50,3894.52 2290.50,3832.16 2326.50,3769.81 2398.50,3769.81" fill="#1A1A1A" stroke="none" />
<polygon points="2547.00,3767.21 2511.00,3829.56 2439.00,3829.56 2403.00,3767.21 2439.00,3704.86 2511.00,3704.86" fill="#E21E26" stroke="none" />
<polygon points="2772.00,3767.21 2736.00,3829.56 2664.00,3829.56 2628.00,3767.21 2664.00,3704.86 2736.00,3704.86" fill="#1A1A1A" stroke="none" />
<polygon points="2884.50,3832.16 2848.50,3894.52 2776.50,3894.52 2740.50,3832.16 2776.50,3769.81 2848.50,3769.81" fill="#2A2A2A" stroke="none" />
<polygon points="2997.00,3767.21 2961.00,3829.56 2889.00,3829.56 2853.00,3767.21 2889.00,3704.86 2961.00,3704.86" fill="#333333" stroke="none" />
<polygon points="3222.00,3767.21 3186.00,3829.56 3114.00,3829.56 3078.00,3767.21 3114.00,3704.86 3186.00,3704.86" fill="#E21E26" stroke="none" />
<polygon points="3672.00,3767.21 3636.00,3829.56 3564.00,3829.56 3528.00,3767.21 3564.00,3704.86 3636.00,3704.86" fill="#111111" stroke="none" />
<polygon points="3897.00,3767.21 3861.00,3829.56 3789.00,3829.56 3753.00,3767.21 3789.00,3704.86 3861.00,3704.86" fill="#111111" stroke="none" />
<polygon points="4009.50,3832.16 3973.50,3894.52 3901.50,3894.52 3865.50,3832.16 3901.50,3769.81 3973.50,3769.81" fill="#111111" stroke="none" />
<polygon points="4122.00,3767.21 4086.00,3829.56 4014.00,3829.56 3978.00,3767.21 4014.00,3704.86 4086.00,3704.86" fill="#444444" stroke="none" />
<polygon points="4234.50,3832.16 4198.50,3894.52 4126.50,3894.52 4090.50,3832.16 4126.50,3769.81 4198.50,3769.81" fill="#111111" stroke="none" />
<polygon points="4347.00,3767.21 4311.00,3829.56 4239.00,3829.56 4203.00,3767.21 4239.00,3704.86 4311.00,3704.86" fill="#111111" stroke="none" />
<polygon points="5134.50,3832.16 5098.50,3894.52 5026.50,3894.52 4990.50,3832.16 5026.50,3769.81 5098.50,3769.81" fill="#111111" stroke="none" />
<polygon points="5247.00,3767.21 5211.00,3829.56 5139.00,3829.56 5103.00,3767.21 5139.00,3704.86 5211.00,3704.86" fill="#111111" stroke="none" />
<polygon points="1197.00,3897.11 1161.00,3959.47 1089.00,3959.47 1053.00,3897.11 1089.00,3834.76 1161.00,3834.76" fill="#1A1A1A" stroke="none" />
<polygon points="1309.50,3962.07 1273.50,4024.42 1201.50,4024.42 1165.50,3962.07 1201.50,3899.71 1273.50,3899.71" fill="#111111" stroke="none" />
<polygon points="1872.00,3897.11 1836.00,3959.47 1764.00,3959.47 1728.00,3897.11 1764.00,3834.76 1836.00,3834.76" fill="#111111" stroke="none" />
<polygon points="2097.00,3897.11 2061.00,3959.47 1989.00,3959.47 1953.00,3897.11 1989.00,3834.76 2061.00,3834.76" fill="#111111" stroke="none" />
<polygon points="2434.50,3962.07 2398.50,4024.42 2326.50,4024.42 2290.50,3962.07 2326.50,3899.71 2398.50,3899.71" fill="#333333" stroke="none" />
<polygon points="2659.50,3962.07 2623.50,4024.42 2551.50,4024.42 2515.50,3962.07 2551.50,3899.71 2623.50,3899.71" fill="#E21E26" stroke="none" />
<polygon points="3109.50,3962.07 3073.50,4024.42 3001.50,4024.42 2965.50,3962.07 3001.50,3899.71 3073.50,3899.71" fill="#2A2A2A" stroke="none" />
<polygon points="3334.50,3962.07 3298.50,4024.42 3226.50,4024.42 3190.50,3962.07 3226.50,3899.71 3298.50,3899.71" fill="#333333" stroke="none" />
<polygon points="3447.00,3897.11 3411.00,3959.47 3339.00,3959.47 3303.00,3897.11 3339.00,3834.76 3411.00,3834.76" fill="#2A2A2A" stroke="none" />
<polygon points="3672.00,3897.11 3636.00,3959.47 3564.00,3959.47 3528.00,3897.11 3564.00,3834.76 3636.00,3834.76" fill="#111111" stroke="none" />
<polygon points="4122.00,3897.11 4086.00,3959.47 4014.00,3959.47 3978.00,3897.11 4014.00,3834.76 4086.00,3834.76" fill="#2A2A2A" stroke="none" />
<polygon points="4234.50,3962.07 4198.50,4024.42 4126.50,4024.42 4090.50,3962.07 4126.50,3899.71 4198.50,3899.71" fill="#E21E26" stroke="none" />
<polygon points="4459.50,3962.07 4423.50,4024.42 4351.50,4024.42 4315.50,3962.07 4351.50,3899.71 4423.50,3899.71" fill="#2A2A2A" stroke="none" />
<polygon points="4572.00,3897.11 4536.00,3959.47 4464.00,3959.47 4428.00,3897.11 4464.00,3834.76 4536.00,3834.76" fill="#1A1A1A" stroke="none" />
<polygon points="4684.50,3962.07 4648.50,4024.42 4576.50,4024.42 4540.50,3962.07 4576.50,3899.71 4648.50,3899.71" fill="#1A1A1A" stroke="none" />
<polygon points="4909.50,3962.07 4873.50,4024.42 4801.50,4024.42 4765.50,3962.07 4801.50,3899.71 4873.50,3899.71" fill="#333333" stroke="none" />
<polygon points="5022.00,3897.11 4986.00,3959.47 4914.00,3959.47 4878.00,3897.11 4914.00,3834.76 4986.00,3834.76" fill="#444444" stroke="none" />
<polygon points="5247.00,3897.11 5211.00,3959.47 5139.00,3959.47 5103.00,3897.11 5139.00,3834.76 5211.00,3834.76" fill="#1A1A1A" stroke="none" />
<polygon points="634.50,4091.97 598.50,4154.32 526.50,4154.32 490.50,4091.97 526.50,4029.62 598.50,4029.62" fill="#111111" stroke="none" />
<polygon points="972.00,4027.02 936.00,4089.37 864.00,4089.37 828.00,4027.02 864.00,3964.66 936.00,3964.66" fill="#2A2A2A" stroke="none" />
<polygon points="1197.00,4027.02 1161.00,4089.37 1089.00,4089.37 1053.00,4027.02 1089.00,3964.66 1161.00,3964.66" fill="#111111" stroke="none" />
<polygon points="1309.50,4091.97 1273.50,4154.32 1201.50,4154.32 1165.50,4091.97 1201.50,4029.62 1273.50,4029.62" fill="#E21E26" stroke="none" />
<polygon points="1534.50,4091.97 1498.50,4154.32 1426.50,4154.32 1390.50,4091.97 1426.50,4029.62 1498.50,4029.62" fill="#E21E26" stroke="none" />
<polygon points="1759.50,4091.97 1723.50,4154.32 1651.50,4154.32 1615.50,4091.97 1651.50,4029.62 1723.50,4029.62" fill="#111111" stroke="none" />
<polygon points="1872.00,4027.02 1836.00,4089.37 1764.00,4089.37 1728.00,4027.02 1764.00,3964.66 1836.00,3964.66" fill="#E21E26" stroke="none" />
<polygon points="2209.50,4091.97 2173.50,4154.32 2101.50,4154.32 2065.50,4091.97 2101.50,4029.62 2173.50,4029.62" fill="#E21E26" stroke="none" />
<polygon points="2322.00,4027.02 2286.00,4089.37 2214.00,4089.37 2178.00,4027.02 2214.00,3964.66 2286.00,3964.66" fill="#111111" stroke="none" />
<polygon points="2884.50,4091.97 2848.50,4154.32 2776.50,4154.32 2740.50,4091.97 2776.50,4029.62 2848.50,4029.62" fill="#E21E26" stroke="none" />
<polygon points="3222.00,4027.02 3186.00,4089.37 3114.00,4089.37 3078.00,4027.02 3114.00,3964.66 3186.00,3964.66" fill="#E21E26" stroke="none" />
<polygon points="3447.00,4027.02 3411.00,4089.37 3339.00,4089.37 3303.00,4027.02 3339.00,3964.66 3411.00,3964.66" fill="#444444" stroke="none" />
<polygon points="3672.00,4027.02 3636.00,4089.37 3564.00,4089.37 3528.00,4027.02 3564.00,3964.66 3636.00,3964.66" fill="#111111" stroke="none" />
<polygon points="3784.50,4091.97 3748.50,4154.32 3676.50,4154.32 3640.50,4091.97 3676.50,4029.62 3748.50,4029.62" fill="#444444" stroke="none" />
<polygon points="4122.00,4027.02 4086.00,4089.37 4014.00,4089.37 3978.00,4027.02 4014.00,3964.66 4086.00,3964.66" fill="#333333" stroke="none" />
<polygon points="4459.50,4091.97 4423.50,4154.32 4351.50,4154.32 4315.50,4091.97 4351.50,4029.62 4423.50,4029.62" fill="#2A2A2A" stroke="none" />
<polygon points="4572.00,4027.02 4536.00,4089.37 4464.00,4089.37 4428.00,4027.02 4464.00,3964.66 4536.00,3964.66" fill="#111111" stroke="none" />
<polygon points="4684.50,4091.97 4648.50,4154.32 4576.50,4154.32 4540.50,4091.97 4576.50,4029.62 4648.50,4029.62" fill="#444444" stroke="none" />
<polygon points="4797.00,4027.02 4761.00,4089.37 4689.00,4089.37 4653.00,4027.02 4689.00,3964.66 4761.00,3964.66" fill="#2A2A2A" stroke="none" />
<polygon points="5022.00,4027.02 4986.00,4089.37 4914.00,4089.37 4878.00,4027.02 4914.00,3964.66 4986.00,3964.66" fill="#1A1A1A" stroke="none" />
<polygon points="5134.50,4091.97 5098.50,4154.32 5026.50,4154.32 4990.50,4091.97 5026.50,4029.62 5098.50,4029.62" fill="#444444" stroke="none" />
<polygon points="747.00,4156.92 711.00,4219.28 639.00,4219.28 603.00,4156.92 639.00,4094.57 711.00,4094.57" fill="#1A1A1A" stroke="none" />
<polygon points="972.00,4156.92 936.00,4219.28 864.00,4219.28 828.00,4156.92 864.00,4094.57 936.00,4094.57" fill="#2A2A2A" stroke="none" />
<polygon points="1422.00,4156.92 1386.00,4219.28 1314.00,4219.28 1278.00,4156.92 1314.00,4094.57 1386.00,4094.57" fill="#1A1A1A" stroke="none" />
<polygon points="1534.50,4221.87 1498.50,4284.23 1426.50,4284.23 1390.50,4221.87 1426.50,4159.52 1498.50,4159.52" fill="#444444" stroke="none" />
<polygon points="1647.00,4156.92 1611.00,4219.28 1539.00,4219.28 1503.00,4156.92 1539.00,4094.57 1611.00,4094.57" fill="#111111" stroke="none" />
<polygon points="1872.00,4156.92 1836.00,4219.28 1764.00,4219.28 1728.00,4156.92 1764.00,4094.57 1836.00,4094.57" fill="#111111" stroke="none" />
<polygon points="1984.50,4221.87 1948.50,4284.23 1876.50,4284.23 1840.50,4221.87 1876.50,4159.52 1948.50,4159.52" fill="#111111" stroke="none" />
<polygon points="2322.00,4156.92 2286.00,4219.28 2214.00,4219.28 2178.00,4156.92 2214.00,4094.57 2286.00,4094.57" fill="#333333" stroke="none" />
<polygon points="2434.50,4221.87 2398.50,4284.23 2326.50,4284.23 2290.50,4221.87 2326.50,4159.52 2398.50,4159.52" fill="#111111" stroke="none" />
<polygon points="2772.00,4156.92 2736.00,4219.28 2664.00,4219.28 2628.00,4156.92 2664.00,4094.57 2736.00,4094.57" fill="#111111" stroke="none" />
<polygon points="2884.50,4221.87 2848.50,4284.23 2776.50,4284.23 2740.50,4221.87 2776.50,4159.52 2848.50,4159.52" fill="#111111" stroke="none" />
<polygon points="2997.00,4156.92 2961.00,4219.28 2889.00,4219.28 2853.00,4156.92 2889.00,4094.57 2961.00,4094.57" fill="#111111" stroke="none" />
<polygon points="3222.00,4156.92 3186.00,4219.28 3114.00,4219.28 3078.00,4156.92 3114.00,4094.57 3186.00,4094.57" fill="#444444" stroke="none" />
<polygon points="3447.00,4156.92 3411.00,4219.28 3339.00,4219.28 3303.00,4156.92 3339.00,4094.57 3411.00,4094.57" fill="#333333" stroke="none" />
<polygon points="3559.50,4221.87 3523.50,4284.23 3451.50,4284.23 3415.50,4221.87 3451.50,4159.52 3523.50,4159.52" fill="#111111" stroke="none" />
<polygon points="3897.00,4156.92 3861.00,4219.28 3789.00,4219.28 3753.00,4156.92 3789.00,4094.57 3861.00,4094.57" fill="#E21E26" stroke="none" />
<polygon points="4009.50,4221.87 3973.50,4284.23 3901.50,4284.23 3865.50,4221.87 3901.50,4159.52 3973.50,4159.52" fill="#444444" stroke="none" />
<polygon points="4122.00,4156.92 4086.00,4219.28 4014.00,4219.28 3978.00,4156.92 4014.00,4094.57 4086.00,4094.57" fill="#111111" stroke="none" />
<polygon points="4797.00,4156.92 4761.00,4219.28 4689.00,4219.28 4653.00,4156.92 4689.00,4094.57 4761.00,4094.57" fill="#111111" stroke="none" />
<polygon points="972.00,4286.83 936.00,4349.18 864.00,4349.18 828.00,4286.83 864.00,4224.47 936.00,4224.47" fill="#E21E26" stroke="none" />
<polygon points="1759.50,4351.78 1723.50,4414.13 1651.50,4414.13 1615.50,4351.78 1651.50,4289.42 1723.50,4289.42" fill="#1A1A1A" stroke="none" />
<polygon points="2322.00,4286.83 2286.00,4349.18 2214.00,4349.18 2178.00,4286.83 2214.00,4224.47 2286.00,4224.47" fill="#1A1A1A" stroke="none" />
<polygon points="2547.00,4286.83 2511.00,4349.18 2439.00,4349.18 2403.00,4286.83 2439.00,4224.47 2511.00,4224.47" fill="#111111" stroke="none" />
<polygon points="3897.00,4286.83 3861.00,4349.18 3789.00,4349.18 3753.00,4286.83 3789.00,4224.47 3861.00,4224.47" fill="#111111" stroke="none" />
<polygon points="4122.00,4286.83 4086.00,4349.18 4014.00,4349.18 3978.00,4286.83 4014.00,4224.47 4086.00,4224.47" fill="#1A1A1A" stroke="none" />
<polygon points="4459.50,4351.78 4423.50,4414.13 4351.50,4414.13 4315.50,4351.78 4351.50,4289.42 4423.50,4289.42" fill="#111111" stroke="none" />
<polygon points="4797.00,4286.83 4761.00,4349.18 4689.00,4349.18 4653.00,4286.83 4689.00,4224.47 4761.00,4224.47" fill="#111111" stroke="none" />
<polygon points="1309.50,4481.68 1273.50,4544.04 1201.50,4544.04 1165.50,4481.68 1201.50,4419.33 1273.50,4419.33" fill="#1A1A1A" stroke="none" />
<polygon points="1422.00,4416.73 1386.00,4479.08 1314.00,4479.08 1278.00,4416.73 1314.00,4354.38 1386.00,4354.38" fill="#333333" stroke="none" />
<polygon points="2884.50,4481.68 2848.50,4544.04 2776.50,4544.04 2740.50,4481.68 2776.50,4419.33 2848.50,4419.33" fill="#333333" stroke="none" />
<polygon points="3109.50,4481.68 3073.50,4544.04 3001.50,4544.04 2965.50,4481.68 3001.50,4419.33 3073.50,4419.33" fill="#111111" stroke="none" />
<polygon points="3334.50,4481.68 3298.50,4544.04 3226.50,4544.04 3190.50,4481.68 3226.50,4419.33 3298.50,4419.33" fill="#111111" stroke="none" />
<polygon points="3559.50,4481.68 3523.50,4544.04 3451.50,4544.04 3415.50,4481.68 3451.50,4419.33 3523.50,4419.33" fill="#333333" stroke="none" />
<polygon points="3784.50,4481.68 3748.50,4544.04 3676.50,4544.04 3640.50,4481.68 3676.50,4419.33 3748.50,4419.33" fill="#E21E26" stroke="none" />
<polygon points="4684.50,4481.68 4648.50,4544.04 4576.50,4544.04 4540.50,4481.68 4576.50,4419.33 4648.50,4419.33" fill="#E21E26" stroke="none" />
<polygon points="4797.00,4416.73 4761.00,4479.08 4689.00,4479.08 4653.00,4416.73 4689.00,4354.38 4761.00,4354.38" fill="#1A1A1A" stroke="none" />
<polygon points="5022.00,4416.73 4986.00,4479.08 4914.00,4479.08 4878.00,4416.73 4914.00,4354.38 4986.00,4354.38" fill="#111111" stroke="none" />
<polygon points="1309.50,4611.59 1273.50,4673.94 1201.50,4673.94 1165.50,4611.59 1201.50,4549.23 1273.50,4549.23" fill="#E21E26" stroke="none" />
<polygon points="2097.00,4546.63 2061.00,4608.99 1989.00,4608.99 1953.00,4546.63 1989.00,4484.28 2061.00,4484.28" fill="#111111" stroke="none" />
<polygon points="2434.50,4611.59 2398.50,4673.94 2326.50,4673.94 2290.50,4611.59 2326.50,4549.23 2398.50,4549.23" fill="#111111" stroke="none" />
<polygon points="2772.00,4546.63 2736.00,4608.99 2664.00,4608.99 2628.00,4546.63 2664.00,4484.28 2736.00,4484.28" fill="#111111" stroke="none" />
<polygon points="2997.00,4546.63 2961.00,4608.99 2889.00,4608.99 2853.00,4546.63 2889.00,4484.28 2961.00,4484.28" fill="#111111" stroke="none" />
<polygon points="3222.00,4546.63 3186.00,4608.99 3114.00,4608.99 3078.00,4546.63 3114.00,4484.28 3186.00,4484.28" fill="#111111" stroke="none" />
<polygon points="3447.00,4546.63 3411.00,4608.99 3339.00,4608.99 3303.00,4546.63 3339.00,4484.28 3411.00,4484.28" fill="#444444" stroke="none" />
<polygon points="3897.00,4546.63 3861.00,4608.99 3789.00,4608.99 3753.00,4546.63 3789.00,4484.28 3861.00,4484.28" fill="#333333" stroke="none" />
<polygon points="4009.50,4611.59 3973.50,4673.94 3901.50,4673.94 3865.50,4611.59 3901.50,4549.23 3973.50,4549.23" fill="#333333" stroke="none" />
<polygon points="4234.50,4611.59 4198.50,4673.94 4126.50,4673.94 4090.50,4611.59 4126.50,4549.23 4198.50,4549.23" fill="#111111" stroke="none" />
<polygon points="4572.00,4546.63 4536.00,4608.99 4464.00,4608.99 4428.00,4546.63 4464.00,4484.28 4536.00,4484.28" fill="#111111" stroke="none" />
<polygon points="4684.50,4611.59 4648.50,4673.94 4576.50,4673.94 4540.50,4611.59 4576.50,4549.23 4648.50,4549.23" fill="#E21E26" stroke="none" />
<polygon points="1872.00,4676.54 1836.00,4738.89 1764.00,4738.89 1728.00,4676.54 1764.00,4614.18 1836.00,4614.18" fill="#2A2A2A" stroke="none" />
<polygon points="1984.50,4741.49 1948.50,4803.84 1876.50,4803.84 1840.50,4741.49 1876.50,4679.14 1948.50,4679.14" fill="#333333" stroke="none" />
<polygon points="2322.00,4676.54 2286.00,4738.89 2214.00,4738.89 2178.00,4676.54 2214.00,4614.18 2286.00,4614.18" fill="#111111" stroke="none" />
<polygon points="2659.50,4741.49 2623.50,4803.84 2551.50,4803.84 2515.50,4741.49 2551.50,4679.14 2623.50,4679.14" fill="#E21E26" stroke="none" />
<polygon points="3222.00,4676.54 3186.00,4738.89 3114.00,4738.89 3078.00,4676.54 3114.00,4614.18 3186.00,4614.18" fill="#111111" stroke="none" />
<polygon points="3334.50,4741.49 3298.50,4803.84 3226.50,4803.84 3190.50,4741.49 3226.50,4679.14 3298.50,4679.14" fill="#E21E26" stroke="none" />
<polygon points="3447.00,4676.54 3411.00,4738.89 3339.00,4738.89 3303.00,4676.54 3339.00,4614.18 3411.00,4614.18" fill="#444444" stroke="none" />
<polygon points="3784.50,4741.49 3748.50,4803.84 3676.50,4803.84 3640.50,4741.49 3676.50,4679.14 3748.50,4679.14" fill="#1A1A1A" stroke="none" />
<polygon points="4009.50,4741.49 3973.50,4803.84 3901.50,4803.84 3865.50,4741.49 3901.50,4679.14 3973.50,4679.14" fill="#2A2A2A" stroke="none" />
<polygon points="4234.50,4741.49 4198.50,4803.84 4126.50,4803.84 4090.50,4741.49 4126.50,4679.14 4198.50,4679.14" fill="#2A2A2A" stroke="none" />
<polygon points="4459.50,4741.49 4423.50,4803.84 4351.50,4803.84 4315.50,4741.49 4351.50,4679.14 4423.50,4679.14" fill="#1A1A1A" stroke="none" />
<polygon points="4572.00,4676.54 4536.00,4738.89 4464.00,4738.89 4428.00,4676.54 4464.00,4614.18 4536.00,4614.18" fill="#1A1A1A" stroke="none" />
<polygon points="1197.00,4806.44 1161.00,4868.79 1089.00,4868.79 1053.00,4806.44 1089.00,4744.09 1161.00,4744.09" fill="#E21E26" stroke="none" />
<polygon points="1422.00,4806.44 1386.00,4868.79 1314.00,4868.79 1278.00,4806.44 1314.00,4744.09 1386.00,4744.09" fill="#111111" stroke="none" />
<polygon points="1872.00,4806.44 1836.00,4868.79 1764.00,4868.79 1728.00,4806.44 1764.00,4744.09 1836.00,4744.09" fill="#111111" stroke="none" />
<polygon points="1984.50,4871.39 1948.50,4933.75 1876.50,4933.75 1840.50,4871.39 1876.50,4809.04 1948.50,4809.04" fill="#2A2A2A" stroke="none" />
<polygon points="2097.00,4806.44 2061.00,4868.79 1989.00,4868.79 1953.00,4806.44 1989.00,4744.09 2061.00,4744.09" fill="#111111" stroke="none" />
<polygon points="2659.50,4871.39 2623.50,4933.75 2551.50,4933.75 2515.50,4871.39 2551.50,4809.04 2623.50,4809.04" fill="#2A2A2A" stroke="none" />
<polygon points="3109.50,4871.39 3073.50,4933.75 3001.50,4933.75 2965.50,4871.39 3001.50,4809.04 3073.50,4809.04" fill="#111111" stroke="none" />
<polygon points="3334.50,4871.39 3298.50,4933.75 3226.50,4933.75 3190.50,4871.39 3226.50,4809.04 3298.50,4809.04" fill="#444444" stroke="none" />
<polygon points="3672.00,4806.44 3636.00,4868.79 3564.00,4868.79 3528.00,4806.44 3564.00,4744.09 3636.00,4744.09" fill="#2A2A2A" stroke="none" />
<polygon points="3784.50,4871.39 3748.50,4933.75 3676.50,4933.75 3640.50,4871.39 3676.50,4809.04 3748.50,4809.04" fill="#444444" stroke="none" />
<polygon points="4347.00,4806.44 4311.00,4868.79 4239.00,4868.79 4203.00,4806.44 4239.00,4744.09 4311.00,4744.09" fill="#111111" stroke="none" />
<polygon points="4572.00,4806.44 4536.00,4868.79 4464.00,4868.79 4428.00,4806.44 4464.00,4744.09 4536.00,4744.09" fill="#1A1A1A" stroke="none" />
<polygon points="1197.00,4936.34 1161.00,4998.70 1089.00,4998.70 1053.00,4936.34 1089.00,4873.99 1161.00,4873.99" fill="#1A1A1A" stroke="none" />
<polygon points="1309.50,5001.30 1273.50,5063.65 1201.50,5063.65 1165.50,5001.30 1201.50,4938.94 1273.50,4938.94" fill="#1A1A1A" stroke="none" />
<polygon points="2209.50,5001.30 2173.50,5063.65 2101.50,5063.65 2065.50,5001.30 2101.50,4938.94 2173.50,4938.94" fill="#1A1A1A" stroke="none" />
<polygon points="2322.00,4936.34 2286.00,4998.70 2214.00,4998.70 2178.00,4936.34 2214.00,4873.99 2286.00,4873.99" fill="#E21E26" stroke="none" />
<polygon points="2434.50,5001.30 2398.50,5063.65 2326.50,5063.65 2290.50,5001.30 2326.50,4938.94 2398.50,4938.94" fill="#111111" stroke="none" />
<polygon points="2547.00,4936.34 2511.00,4998.70 2439.00,4998.70 2403.00,4936.34 2439.00,4873.99 2511.00,4873.99" fill="#111111" stroke="none" />
<polygon points="3784.50,5001.30 3748.50,5063.65 3676.50,5063.65 3640.50,5001.30 3676.50,4938.94 3748.50,4938.94" fill="#444444" stroke="none" />
<polygon points="3897.00,4936.34 3861.00,4998.70 3789.00,4998.70 3753.00,4936.34 3789.00,4873.99 3861.00,4873.99" fill="#444444" stroke="none" />
<polygon points="4122.00,4936.34 4086.00,4998.70 4014.00,4998.70 3978.00,4936.34 4014.00,4873.99 4086.00,4873.99" fill="#E21E26" stroke="none" />
<polygon points="4347.00,4936.34 4311.00,4998.70 4239.00,4998.70 4203.00,4936.34 4239.00,4873.99 4311.00,4873.99" fill="#111111" stroke="none" />
<polygon points="1984.50,5131.20 1948.50,5193.55 1876.50,5193.55 1840.50,5131.20 1876.50,5068.85 1948.50,5068.85" fill="#2A2A2A" stroke="none" />
<polygon points="2434.50,5131.20 2398.50,5193.55 2326.50,5193.55 2290.50,5131.20 2326.50,5068.85 2398.50,5068.85" fill="#111111" stroke="none" />
<polygon points="2547.00,5066.25 2511.00,5128.60 2439.00,5128.60 2403.00,5066.25 2439.00,5003.89 2511.00,5003.89" fill="#2A2A2A" stroke="none" />
<polygon points="2659.50,5131.20 2623.50,5193.55 2551.50,5193.55 2515.50,5131.20 2551.50,5068.85 2623.50,5068.85" fill="#444444" stroke="none" />
<polygon points="3222.00,5066.25 3186.00,5128.60 3114.00,5128.60 3078.00,5066.25 3114.00,5003.89 3186.00,5003.89" fill="#333333" stroke="none" />
<polygon points="3672.00,5066.25 3636.00,5128.60 3564.00,5128.60 3528.00,5066.25 3564.00,5003.89 3636.00,5003.89" fill="#111111" stroke="none" />
<polygon points="3897.00,5066.25 3861.00,5128.60 3789.00,5128.60 3753.00,5066.25 3789.00,5003.89 3861.00,5003.89" fill="#E21E26" stroke="none" />
<polygon points="4572.00,5066.25 4536.00,5128.60 4464.00,5128.60 4428.00,5066.25 4464.00,5003.89 4536.00,5003.89" fill="#111111" stroke="none" />
<polygon points="1422.00,5196.15 1386.00,5258.51 1314.00,5258.51 1278.00,5196.15 1314.00,5133.80 1386.00,5133.80" fill="#111111" stroke="none" />
<polygon points="1534.50,5261.10 1498.50,5323.46 1426.50,5323.46 1390.50,5261.10 1426.50,5198.75 1498.50,5198.75" fill="#2A2A2A" stroke="none" />
<polygon points="2097.00,5196.15 2061.00,5258.51 1989.00,5258.51 1953.00,5196.15 1989.00,5133.80 2061.00,5133.80" fill="#E21E26" stroke="none" />
<polygon points="2547.00,5196.15 2511.00,5258.51 2439.00,5258.51 2403.00,5196.15 2439.00,5133.80 2511.00,5133.80" fill="#E21E26" stroke="none" />
<polygon points="2659.50,5261.10 2623.50,5323.46 2551.50,5323.46 2515.50,5261.10 2551.50,5198.75 2623.50,5198.75" fill="#333333" stroke="none" />
<polygon points="2884.50,5261.10 2848.50,5323.46 2776.50,5323.46 2740.50,5261.10 2776.50,5198.75 2848.50,5198.75" fill="#333333" stroke="none" />
<polygon points="1647.00,5326.06 1611.00,5388.41 1539.00,5388.41 1503.00,5326.06 1539.00,5263.70 1611.00,5263.70" fill="#111111" stroke="none" />
<polygon points="2097.00,5326.06 2061.00,5388.41 1989.00,5388.41 1953.00,5326.06 1989.00,5263.70 2061.00,5263.70" fill="#111111" stroke="none" />
<polygon points="2322.00,5326.06 2286.00,5388.41 2214.00,5388.41 2178.00,5326.06 2214.00,5263.70 2286.00,5263.70" fill="#111111" stroke="none" />
<polygon points="2547.00,5326.06 2511.00,5388.41 2439.00,5388.41 2403.00,5326.06 2439.00,5263.70 2511.00,5263.70" fill="#111111" stroke="none" />
<polygon points="3672.00,5326.06 3636.00,5388.41 3564.00,5388.41 3528.00,5326.06 3564.00,5263.70 3636.00,5263.70" fill="#333333" stroke="none" />
<polygon points="4122.00,5326.06 4086.00,5388.41 4014.00,5388.41 3978.00,5326.06 4014.00,5263.70 4086.00,5263.70" fill="#444444" stroke="none" />
<polygon points="2322.00,5455.96 2286.00,5518.31 2214.00,5518.31 2178.00,5455.96 2214.00,5393.61 2286.00,5393.61" fill="#333333" stroke="none" />
<polygon points="3109.50,5520.91 3073.50,5583.27 3001.50,5583.27 2965.50,5520.91 3001.50,5458.56 3073.50,5458.56" fill="#111111" stroke="none" />
<polygon points="3222.00,5455.96 3186.00,5518.31 3114.00,5518.31 3078.00,5455.96 3114.00,5393.61 3186.00,5393.61" fill="#444444" stroke="none" />
<polygon points="3672.00,5455.96 3636.00,5518.31 3564.00,5518.31 3528.00,5455.96 3564.00,5393.61 3636.00,5393.61" fill="#2A2A2A" stroke="none" />
<polygon points="3897.00,5455.96 3861.00,5518.31 3789.00,5518.31 3753.00,5455.96 3789.00,5393.61 3861.00,5393.61" fill="#E21E26" stroke="none" />
<polygon points="2097.00,5585.86 2061.00,5648.22 1989.00,5648.22 1953.00,5585.86 1989.00,5523.51 2061.00,5523.51" fill="#111111" stroke="none" />
<polygon points="3222.00,5585.86 3186.00,5648.22 3114.00,5648.22 3078.00,5585.86 3114.00,5523.51 3186.00,5523.51" fill="#2A2A2A" stroke="none" />
<polygon points="3559.50,5650.82 3523.50,5713.17 3451.50,5713.17 3415.50,5650.82 3451.50,5588.46 3523.50,5588.46" fill="#1A1A1A" stroke="none" />
<polygon points="2997.00,5715.77 2961.00,5778.12 2889.00,5778.12 2853.00,5715.77 2889.00,5653.41 2961.00,5653.41" fill="#111111" stroke="none" />
</svg>